<?xml version="1.0" standalone="no"?>
<!DOCTYPE svg PUBLIC "-//W3C//DTD SVG 20010904//EN"
 "http://www.w3.org/TR/2001/REC-SVG-20010904/DTD/svg10.dtd">
<svg version="1.0" xmlns="http://www.w3.org/2000/svg"
 width="1024.000000pt" height="1024.000000pt" viewBox="0 0 1024.000000 1024.000000"
 preserveAspectRatio="xMidYMid meet">

<g transform="translate(0.000000,1024.000000) scale(0.100000,-0.100000)"
fill="#000000" stroke="none">
<path d="M0 5120 l0 -5120 5120 0 5120 0 0 5120 0 5120 -5120 0 -5120 0 0
-5120z m6701 3906 c191 -31 373 -103 526 -208 101 -69 234 -201 307 -305 32
-46 59 -83 61 -83 27 0 229 -46 281 -64 570 -194 892 -800 729 -1373 -140
-490 -587 -823 -1105 -823 l-96 0 -57 -58 -57 -58 0 -174 0 -175 51 -44 c28
-24 60 -63 70 -85 24 -54 25 -148 0 -202 -17 -37 -93 -114 -113 -114 -4 0 -8
-46 -8 -103 l0 -103 -724 -734 -725 -735 0 -213 -1 -214 123 -136 c67 -76 225
-254 351 -397 126 -143 246 -279 267 -301 l38 -41 -81 -2 c-92 -2 -104 6 -15
10 31 1 57 5 57 9 0 7 -51 69 -111 135 -20 22 -94 105 -164 185 -118 135 -242
274 -407 459 l-68 76 0 220 0 220 375 375 c219 219 373 380 370 388 -3 7 0 10
6 6 15 -9 150 127 144 146 -4 8 -3 11 1 7 10 -10 55 34 47 46 -3 6 -1 7 5 3 7
-4 24 8 41 26 24 26 27 35 15 41 -8 4 -14 13 -14 18 0 6 7 3 16 -6 15 -15 18
-15 34 0 10 9 17 26 15 37 -3 15 -1 17 9 9 16 -14 27 -4 19 17 -5 11 -2 14 9
9 17 -6 52 24 43 36 -3 4 -2 5 2 2 11 -9 92 76 86 91 -3 8 -10 11 -15 8 -6 -4
-5 3 1 14 7 13 17 19 26 15 12 -4 13 -8 4 -19 -9 -12 -9 -13 4 -8 22 8 29 31
11 38 -9 3 -12 11 -8 17 5 8 10 6 16 -5 5 -9 14 -14 19 -11 5 4 6 11 3 17 -4
6 -3 8 3 5 9 -6 72 50 73 66 0 4 3 7 8 7 4 1 24 17 45 37 l37 37 0 96 0 95 52
48 53 48 -57 -43 -57 -43 0 -67 c-1 -72 -15 -123 -31 -113 -6 4 -5 12 4 21 16
15 11 48 -5 38 -5 -3 -7 -10 -4 -15 10 -16 -20 -40 -33 -27 -17 17 -25 3 -17
-29 l7 -28 18 23 c20 25 32 17 25 -17 -8 -44 -29 -55 -38 -20 -5 18 -8 19 -28
9 -17 -10 -23 -9 -30 1 -6 10 -8 5 -5 -14 3 -15 1 -25 -4 -22 -10 6 -20 -19
-12 -32 4 -6 15 -9 25 -7 9 1 17 -1 17 -6 0 -14 -25 -28 -50 -26 -19 1 -25 7
-26 26 -1 20 0 21 3 3 3 -14 11 -21 22 -20 17 1 17 3 -2 29 -11 15 -27 28 -34
28 -7 0 -13 5 -13 11 0 5 -4 8 -9 5 -5 -4 -11 -1 -13 6 -3 9 -6 9 -12 0 -4 -8
2 -16 18 -22 26 -9 33 -24 18 -34 -8 -5 -44 18 -43 28 1 3 -2 5 -6 4 -5 -2 -7
-7 -5 -11 1 -5 -1 -6 -6 -3 -5 3 -68 -55 -141 -128 -73 -74 -128 -135 -121
-138 9 -3 7 -8 -4 -17 -14 -12 -16 -11 -10 5 3 10 -20 -8 -52 -40 -53 -53 -57
-60 -39 -67 18 -7 18 -8 2 -8 -12 -1 -16 -5 -11 -13 6 -10 4 -10 -8 0 -11 9
-18 10 -23 2 -3 -5 -1 -10 5 -10 6 0 8 -5 4 -12 -5 -8 -2 -9 11 -4 18 7 18 6
0 -14 -10 -11 -23 -20 -29 -19 -26 3 -37 -2 -30 -13 6 -10 4 -10 -8 0 -9 8
-19 9 -22 4 -8 -13 18 -34 29 -24 5 4 5 1 1 -6 -6 -10 -11 -10 -22 -1 -8 7
-14 7 -14 1 0 -5 -7 -13 -16 -16 -8 -3 -12 -2 -9 4 13 21 -11 9 -25 -13 -22
-34 -18 -49 14 -53 15 -1 31 -6 35 -9 9 -10 -52 -2 -66 8 -7 5 -10 13 -7 18
10 17 -3 9 -22 -13 -15 -19 -16 -20 -1 -9 27 21 20 2 -9 -23 -19 -15 -35 -21
-56 -18 -30 5 -30 5 -24 56 3 28 2 58 -4 66 -7 11 -10 0 -10 -38 0 -32 -4 -51
-10 -47 -5 3 -12 -6 -16 -20 -3 -14 -9 -25 -13 -25 -4 0 -8 -7 -8 -15 0 -12 3
-12 15 -3 8 7 17 20 21 30 6 17 7 16 19 -2 10 -17 9 -18 -6 -13 -15 6 -15 5
-3 -10 7 -9 17 -14 22 -11 5 3 9 1 9 -4 0 -6 -7 -13 -16 -16 -8 -3 -13 -2 -10
3 3 5 -2 15 -11 22 -14 12 -15 11 -10 -6 4 -11 2 -27 -4 -35 -8 -11 -9 -9 -3
10 6 22 5 23 -9 12 -9 -8 -13 -21 -11 -30 5 -15 4 -15 -6 0 -6 10 -19 18 -28
18 -16 -1 -16 -1 1 -11 9 -5 17 -15 17 -22 0 -20 -407 -420 -419 -413 -7 5
-12 81 -13 239 -1 199 -3 217 -9 127 -4 -58 -8 -109 -9 -115 0 -5 1 -22 4 -38
2 -15 0 -25 -5 -21 -5 3 -7 10 -4 15 4 5 1 9 -5 9 -6 0 -9 3 -7 8 3 4 -5 15
-18 24 -23 17 -23 17 -21 -12 1 -17 -1 -30 -6 -30 -9 0 -9 -6 -11 92 -1 42 -5
74 -9 71 -5 -2 -8 -253 -8 -557 l0 -553 142 -159 c246 -277 563 -638 577 -659
18 -27 -16 11 -183 199 -78 88 -232 262 -343 387 l-203 228 0 783 0 783 344
350 344 350 -5 950 -5 950 -178 180 -178 180 -7 180 c-6 152 -10 181 -24 189
-9 5 -35 28 -58 50 -159 158 73 408 255 276 104 -75 99 -235 -9 -301 l-38 -24
-1 -151 0 -150 35 -34 36 -34 176 176 177 177 -27 49 c-51 93 -32 217 44 289
170 161 440 12 405 -222 -7 -45 -60 -135 -84 -143 -8 -2 3 17 22 43 20 25 36
50 36 53 1 4 5 26 9 49 5 24 4 40 0 37 -5 -3 -9 -15 -9 -27 -1 -29 -34 -101
-59 -128 -11 -12 -18 -26 -15 -30 2 -5 -14 -18 -37 -30 -34 -17 -55 -20 -111
-17 l-68 4 -181 -182 c-153 -155 -179 -185 -171 -201 6 -10 51 -61 101 -113
l91 -95 1 -935 c0 -514 1 -965 1 -1002 l0 -68 -280 -287 c-154 -159 -308 -315
-341 -348 l-61 -59 0 -383 c0 -211 2 -383 5 -383 11 0 390 393 394 407 2 13
-3 15 -29 9 -78 -15 -178 48 -198 124 -26 103 44 199 152 208 64 5 122 -21
158 -70 18 -26 23 -47 24 -96 0 -34 4 -66 8 -70 5 -4 181 169 392 383 l384
390 0 51 c0 48 -2 52 -30 64 -49 20 -107 86 -126 142 -33 101 4 205 95 268
l53 37 -1 214 -2 214 103 102 103 103 146 10 c164 11 255 28 355 65 131 49
218 106 333 218 118 116 209 270 252 432 29 106 32 325 6 429 -44 177 -129
325 -259 452 -170 167 -332 245 -579 281 l-120 18 -35 62 c-176 314 -536 515
-929 516 -235 1 -419 -54 -610 -183 -171 -115 -319 -315 -376 -508 l-12 -42
-51 7 c-73 11 -364 9 -375 -2 -5 -6 -11 -218 -13 -502 l-3 -492 45 -17 c92
-35 219 -104 297 -163 129 -97 313 -300 397 -439 4 -8 -39 26 -95 73 -193 162
-377 279 -523 336 -83 32 -203 59 -262 59 l-34 0 0 649 0 650 73 15 c101 22
186 34 302 42 l100 6 45 81 c130 234 283 389 500 506 94 50 261 106 371 125
110 18 322 19 430 2z m-2081 -1918 c0 -650 -2 -1179 -5 -1176 -3 2 -5 442 -5
976 0 916 -1 972 -18 971 -10 0 -12 -3 -4 -6 6 -2 12 -18 12 -34 0 -26 -8 -34
-32 -30 -4 0 -5 -17 -3 -38 3 -28 0 -41 -11 -45 -11 -4 -12 -2 -4 13 12 24 -8
34 -28 14 -16 -16 -36 -7 -28 14 4 8 1 11 -5 8 -6 -4 -8 -14 -5 -22 4 -9 2
-21 -4 -28 -8 -9 -5 -14 10 -18 15 -4 24 1 31 16 8 19 9 18 4 -7 l-6 -29 25
17 c14 9 26 12 26 6 0 -5 -4 -10 -8 -10 -9 0 -42 -70 -42 -88 0 -6 -7 -9 -15
-6 -8 4 -15 10 -15 16 0 5 4 7 9 4 4 -3 14 7 20 21 11 23 10 29 -5 40 -18 13
-43 18 -31 6 4 -3 1 -13 -6 -21 -9 -12 -9 -16 1 -19 6 -3 12 -9 12 -14 0 -4
-8 -6 -17 -3 -15 5 -16 4 -3 -5 13 -10 13 -13 -4 -26 -11 -8 -15 -15 -10 -15
6 0 15 5 21 11 7 7 15 6 25 -5 11 -11 18 -12 27 -3 8 8 11 8 11 -1 0 -19 -31
-27 -41 -11 -6 10 -9 10 -9 1 0 -6 -6 -11 -12 -10 -7 2 -14 -8 -16 -21 -2 -15
0 -21 7 -16 6 3 9 10 6 15 -3 4 2 10 10 14 10 3 15 -1 15 -12 0 -15 2 -15 10
-2 6 9 10 10 10 3 0 -6 -4 -15 -10 -18 -5 -3 -10 -11 -10 -17 0 -7 6 -6 15 2
16 14 19 8 17 -37 -1 -32 14 -29 26 5 6 15 11 20 11 11 1 -19 -22 -51 -34 -48
-6 2 -20 -2 -32 -9 -12 -6 -29 -9 -37 -6 -9 3 -16 1 -16 -5 0 -6 -7 -11 -15
-11 -8 0 -15 5 -15 10 0 6 -5 10 -11 10 -8 0 -8 -4 -2 -12 6 -7 9 -22 8 -34
-1 -11 5 -26 12 -32 9 -9 13 -9 13 -2 0 6 4 8 10 5 6 -3 7 1 4 9 -3 9 -2 16 4
16 5 0 12 -6 15 -14 8 -19 -41 -40 -59 -25 -10 8 -17 7 -30 -5 -9 -10 -14 -19
-11 -22 2 -3 12 2 21 11 14 15 17 15 22 1 3 -9 10 -14 14 -11 5 3 12 0 16 -6
5 -9 -2 -10 -24 -6 -17 4 -34 2 -37 -3 -3 -5 -13 -6 -22 -3 -10 4 -14 2 -12
-6 3 -7 7 -11 9 -10 11 5 50 -23 45 -31 -3 -6 1 -7 9 -4 23 9 20 20 -6 29 -21
6 -21 8 -4 12 20 5 39 -15 31 -34 -2 -7 -1 -15 4 -17 4 -3 7 -15 5 -28 -1 -13
-3 -27 -3 -31 -1 -5 -5 -6 -11 -2 -5 3 -6 13 -3 22 5 11 3 14 -6 9 -8 -5 -10
-18 -7 -35 5 -21 4 -23 -4 -8 -6 9 -15 15 -20 12 -5 -3 -14 4 -20 15 -12 22
-1 27 20 8 12 -11 12 -10 0 5 -7 10 -19 16 -25 13 -7 -2 -18 1 -24 7 -25 25
-9 -4 19 -35 21 -23 28 -38 24 -53 -6 -17 -5 -18 10 -6 9 7 16 10 16 6 0 -4 7
-1 17 6 14 12 16 12 11 0 -2 -8 -16 -18 -31 -22 -15 -4 -34 -14 -43 -23 -8 -9
-21 -13 -27 -9 -7 3 -9 3 -5 -2 4 -4 0 -14 -10 -22 -9 -8 -11 -12 -4 -8 18 9
38 -5 21 -16 -9 -6 -10 -9 -2 -9 6 0 19 7 27 16 9 8 16 14 17 12 7 -26 5 -67
-2 -62 -6 3 -8 13 -4 21 4 13 3 14 -10 3 -8 -7 -12 -18 -7 -24 4 -6 7 -18 6
-26 -1 -8 -2 -21 -3 -28 0 -7 -6 -10 -11 -7 -6 3 -13 -1 -16 -9 -3 -9 -11 -13
-18 -9 -6 3 -8 3 -4 -2 4 -4 1 -22 -8 -39 -8 -17 -9 -23 -2 -13 25 37 48 60
54 55 3 -3 -2 -13 -10 -21 -9 -9 -13 -22 -10 -30 4 -11 -5 -19 -30 -27 -20 -6
-33 -16 -30 -22 4 -7 9 -7 13 0 4 7 13 5 26 -4 14 -11 16 -17 7 -26 -9 -9 -5
-17 14 -35 14 -13 30 -21 35 -18 5 4 9 1 9 -4 0 -17 -30 -13 -37 5 -3 8 -12
13 -20 10 -8 -3 -12 -2 -9 2 2 4 -6 7 -18 7 -16 0 -23 -7 -24 -22 -1 -12 2
-24 7 -28 5 -3 7 4 4 15 -4 14 0 20 11 20 9 0 16 -5 16 -11 0 -5 5 -7 10 -4 6
3 13 -1 16 -10 4 -9 13 -14 21 -11 8 3 11 1 8 -4 -4 -6 -12 -10 -18 -9 -27 3
-47 -2 -47 -12 0 -5 5 -7 10 -4 6 3 10 -1 10 -10 0 -10 -5 -13 -12 -9 -7 4 -8
3 -4 -4 4 -7 1 -12 -6 -12 -7 -1 -3 -6 10 -13 25 -14 20 -29 -6 -20 -15 5 -15
3 1 -13 14 -15 19 -16 26 -6 7 11 9 10 14 -3 4 -9 3 -13 -3 -10 -6 3 -10 1
-10 -6 0 -8 -4 -8 -13 -1 -8 7 -18 7 -27 2 -11 -7 -8 -11 13 -19 36 -14 34
-18 -5 -14 -24 3 -29 2 -19 -5 16 -12 24 -42 11 -42 -5 0 -16 -15 -25 -32
l-16 -33 26 28 c14 15 27 27 29 27 9 0 -20 -50 -29 -50 -5 0 -4 -4 3 -8 32
-21 12 -95 -20 -76 -10 6 -11 4 0 -7 20 -22 13 -33 -9 -13 -21 19 -21 19 -8
-8 7 -16 17 -24 23 -21 6 4 5 -1 -3 -10 -10 -13 -17 -15 -27 -6 -8 6 -14 9
-14 6 0 -3 -3 -12 -6 -20 -4 -12 0 -14 18 -9 26 6 42 20 51 42 5 13 6 13 6 0
1 -8 -7 -29 -17 -45 -21 -33 -19 -57 4 -48 7 3 11 10 7 17 -4 6 1 5 10 -3 10
-8 17 -9 17 -3 0 6 -4 14 -10 17 -5 3 -10 10 -10 16 0 5 8 1 18 -8 19 -18 10
-49 -10 -37 -6 4 -8 -3 -4 -17 3 -13 3 -18 0 -11 -3 6 -11 12 -17 12 -6 0 -18
7 -28 16 -16 15 -17 14 -12 -5 4 -15 1 -20 -8 -18 -8 2 -10 2 -5 -1 4 -2 2 -8
-5 -13 -10 -6 -11 -9 -1 -9 6 0 12 -7 12 -15 0 -8 -7 -15 -15 -15 -9 0 -12 -6
-8 -17 4 -9 2 -14 -3 -10 -6 3 -10 -3 -11 -13 -1 -11 3 -23 9 -26 7 -4 8 -2 4
4 -9 14 23 64 36 56 5 -3 7 -12 4 -20 -3 -8 -1 -14 3 -14 10 0 9 -26 -2 -36
-4 -4 -7 0 -7 9 0 9 -4 18 -9 21 -5 4 -8 -6 -6 -21 2 -16 -4 -39 -12 -52 -8
-13 -10 -20 -4 -17 6 4 11 2 11 -3 0 -6 -7 -11 -15 -11 -20 0 -19 24 1 45 9 9
13 19 10 23 -4 3 -11 0 -15 -7 -6 -9 -11 -10 -15 -2 -4 6 -15 11 -24 11 -14
-1 -14 -2 3 -12 11 -6 21 -12 23 -13 1 -1 -3 -14 -9 -29 -15 -33 -9 -39 25
-27 18 8 26 7 26 0 0 -7 11 -9 25 -7 13 3 22 1 19 -4 -3 -5 -22 -7 -42 -5 -27
3 -42 -1 -57 -16 -20 -20 -20 -20 3 -8 12 7 22 8 22 2 0 -5 -6 -12 -12 -15 -7
-3 -3 -3 10 0 15 4 22 1 22 -10 0 -11 -9 -14 -37 -11 -36 4 -36 3 -10 -6 15
-6 27 -14 27 -19 0 -4 8 -11 17 -14 14 -6 14 -3 -3 15 -18 22 -18 22 14 -1 32
-24 38 -31 25 -29 -5 1 -19 0 -33 -1 l-25 -2 25 -8 c14 -4 19 -8 13 -9 -7 -1
-13 -8 -13 -16 0 -8 -5 -15 -11 -15 -5 0 -8 3 -6 8 2 4 -7 17 -20 29 l-23 22
-11 -21 c-8 -15 -8 -19 0 -14 6 4 11 1 11 -6 0 -10 2 -10 9 1 7 11 11 9 21 -8
6 -13 9 -29 6 -37 -3 -8 -1 -14 4 -14 6 0 10 5 10 11 0 5 5 7 11 3 8 -5 6 -10
-5 -16 -18 -10 -39 -2 -31 13 4 5 2 9 -3 9 -10 0 -22 -24 -22 -43 0 -8 3 -8 8
1 9 14 42 6 42 -10 0 -6 -6 -8 -14 -5 -22 9 -27 -4 -8 -22 10 -9 13 -13 7 -9
-6 4 -17 3 -25 -2 -12 -7 -16 -3 -21 18 l-7 27 -1 -28 c0 -16 7 -36 16 -45 16
-16 16 -16 10 1 -7 19 -2 20 28 7 16 -7 16 -9 4 -9 -9 -1 -20 -8 -23 -17 -3
-8 -2 -13 3 -10 5 3 11 -4 14 -16 4 -16 3 -18 -6 -9 -13 13 -31 15 -23 2 3 -5
0 -11 -8 -14 -9 -4 -12 3 -10 23 3 22 0 28 -11 24 -8 -4 -12 -11 -8 -18 4 -6
7 -20 8 -30 0 -20 25 -36 25 -17 0 6 5 11 12 11 9 0 9 -3 0 -12 -9 -9 -8 -16
5 -30 9 -10 11 -18 5 -18 -6 0 -9 -8 -6 -17 5 -15 4 -15 -4 -3 -6 8 -8 18 -5
23 3 5 0 7 -8 5 -8 -3 -13 -12 -11 -20 1 -9 -5 -21 -13 -28 -12 -10 -15 -10
-15 3 0 8 5 18 10 20 6 3 6 5 -1 3 -17 -3 -39 -73 -23 -73 7 0 10 6 7 14 -3 7
0 13 6 13 6 0 11 -6 11 -14 0 -8 5 -16 12 -18 15 -5 3 -38 -14 -38 -9 0 -9 3
2 10 8 5 11 13 6 17 -4 4 -14 -1 -22 -11 -12 -17 -11 -21 4 -32 14 -11 14 -13
2 -14 -12 0 -10 -4 4 -15 23 -17 14 -20 -15 -4 -11 5 -17 13 -15 17 3 5 0 14
-5 22 -7 11 -8 7 -5 -12 3 -16 0 -28 -5 -28 -6 0 -7 -5 -4 -10 4 -6 11 -8 16
-5 5 4 9 0 9 -7 0 -7 -12 -21 -27 -31 l-28 -17 25 5 c18 4 31 0 43 -13 14 -15
14 -19 3 -19 -8 0 -14 5 -13 10 1 5 -4 12 -12 15 -9 3 -11 0 -6 -8 5 -9 2 -10
-12 -6 -13 4 -20 2 -20 -8 0 -9 4 -13 9 -10 9 5 12 -9 8 -40 -1 -13 3 -17 14
-13 10 4 16 1 16 -7 0 -8 25 11 56 41 86 83 221 193 349 283 l114 81 4 82 3
82 2 -86 2 -85 -102 -70 c-176 -118 -367 -285 -443 -386 -79 -105 -77 -84 -84
-783 -6 -612 -6 -621 -28 -668 -59 -127 -307 -310 -493 -362 -129 -36 -359
-18 -406 32 -53 58 -69 210 -40 388 7 44 11 86 9 93 -4 8 10 12 48 14 44 1 47
2 17 5 -21 2 -38 8 -38 14 0 5 4 9 8 9 4 0 8 9 9 21 1 14 -3 19 -13 15 -12 -4
-12 -2 -4 14 6 11 13 20 16 20 3 0 2 -4 -1 -10 -3 -6 1 -7 9 -4 17 7 22 24 7
24 -5 0 -7 9 -4 20 3 11 9 20 14 20 5 0 6 6 3 14 -3 7 2 21 12 30 15 16 15 17
-12 11 -26 -5 -27 -4 -6 5 12 5 32 14 45 19 17 8 15 9 -13 4 -29 -5 -102 -29
-170 -57 -37 -15 -68 102 -41 152 28 52 210 67 344 27 32 -9 61 -14 64 -11 15
15 -75 76 -178 121 -97 42 -124 49 -179 50 -36 0 -77 -4 -92 -8 -24 -8 -28 -6
-34 17 -3 14 1 53 10 88 8 35 18 97 22 139 l7 77 73 4 c81 4 112 20 152 78 33
50 45 106 39 194 -6 85 -27 131 -27 58 0 -22 -5 -64 -11 -92 l-11 -50 -46 0
c-26 1 -76 7 -112 15 -36 8 -116 14 -179 15 -108 0 -118 -2 -183 -32 l-69 -31
-21 21 c-17 17 -21 32 -20 79 1 77 41 189 159 438 152 321 244 534 263 612 23
87 27 180 16 378 -15 289 49 636 169 907 162 365 418 635 770 810 182 91 366
148 624 192 75 13 137 24 139 25 1 1 2 -531 2 -1181z m-20 683 c0 -5 -7 -11
-15 -15 -15 -5 -20 5 -8 17 9 10 23 9 23 -2z m2858 -32 c120 -58 138 -234 32
-322 -31 -26 -86 -47 -126 -47 -11 0 -42 7 -68 16 l-48 17 -83 -83 c-55 -54
-87 -80 -95 -75 -8 5 -11 4 -7 -2 3 -5 -43 -58 -104 -119 l-109 -109 0 -307
c0 -170 3 -308 6 -308 9 0 65 52 280 256 171 163 171 163 177 215 11 95 86
184 176 209 20 5 73 13 118 16 l82 7 12 34 c33 102 156 160 252 119 18 -7 47
-29 64 -49 72 -82 63 -191 -21 -265 -76 -67 -183 -62 -263 10 -20 19 -30 20
-105 13 -141 -12 -179 -39 -186 -135 l-4 -59 -312 -305 c-301 -293 -314 -304
-359 -311 l-47 -7 0 458 0 459 228 228 c203 203 228 231 224 256 -10 69 42
161 110 194 47 23 123 21 176 -4z m-2948 -39 c0 -5 -2 -10 -4 -10 -3 0 -8 5
-11 10 -3 6 -1 10 4 10 6 0 11 -4 11 -10z m3 -46 c3 -3 3 -12 0 -20 -4 -11 -9
-12 -19 -3 -8 6 -11 15 -8 20 6 10 18 12 27 3z m66 -50 c-12 -13 -25 -22 -28
-19 -2 3 5 12 17 21 12 8 19 20 16 26 -5 7 -2 8 5 3 9 -5 7 -13 -10 -31z m-19
12 c0 -2 -7 -7 -16 -10 -8 -3 -12 -2 -9 4 6 10 25 14 25 6z m1080 -66 c73 -37
114 -132 92 -212 l-10 -35 249 -249 249 -249 0 -630 0 -630 -360 -370 -360
-370 0 -938 0 -939 128 -147 c70 -80 184 -211 252 -290 69 -78 141 -162 161
-185 l37 -42 -84 1 -85 1 -269 309 -270 310 0 989 0 988 360 368 360 368 0
578 0 579 -226 226 -227 227 -57 -5 c-75 -7 -101 0 -145 39 -59 51 -79 109
-63 180 26 119 161 183 268 128z m-1066 -16 c9 -8 16 -20 16 -25 0 -5 -9 0
-20 11 -19 19 -25 30 -16 30 3 0 12 -7 20 -16z m-29 -124 c-4 -6 -11 -8 -16
-5 -5 4 -9 1 -9 -5 0 -6 -5 -8 -11 -4 -8 4 -7 9 2 15 19 12 42 11 34 -1z m-44
-37 c3 1 1 -2 -3 -7 -5 -6 -14 -2 -21 8 -13 18 -15 18 -32 -5 -10 -13 -15 -16
-12 -7 3 9 3 19 -1 21 -4 2 -2 2 5 1 6 -2 14 5 18 14 6 15 8 15 25 -5 9 -12
19 -21 21 -20z m89 33 c0 -2 -7 -9 -15 -16 -13 -11 -14 -10 -9 4 5 14 24 23
24 12z m-47 -31 c-3 -9 -8 -14 -10 -11 -3 3 -2 9 2 15 9 16 15 13 8 -4z m21
-41 c3 -8 2 -12 -4 -9 -6 3 -10 10 -10 16 0 14 7 11 14 -7z m-87 -24 c-1 -12
-5 -16 -10 -11 -5 5 -6 14 -3 20 11 16 15 13 13 -9z m57 -2 c-4 -5 -9 -7 -12
-4 -3 3 -11 1 -19 -5 -8 -8 -13 -8 -13 -1 0 11 16 19 37 19 7 0 10 -4 7 -9z
m-77 -35 c-4 -3 0 -18 9 -32 l15 -26 -20 24 c-24 26 -27 41 -9 41 6 0 8 -3 5
-7z m47 -39 c3 -8 2 -12 -4 -9 -6 3 -10 10 -10 16 0 14 7 11 14 -7z m-29 -34
c3 -5 1 -10 -4 -10 -6 0 -11 5 -11 10 0 6 2 10 4 10 3 0 8 -4 11 -10z m-5 -30
c0 -5 -2 -10 -4 -10 -3 0 -8 5 -11 10 -3 6 -1 10 4 10 6 0 11 -4 11 -10z m-70
-101 c0 -6 -7 -9 -15 -6 -8 4 -17 2 -20 -3 -4 -6 -12 -10 -18 -10 -16 1 23 30
40 30 7 0 13 -5 13 -11z m25 -9 c3 -5 1 -10 -4 -10 -6 0 -11 5 -11 10 0 6 2
10 4 10 3 0 8 -4 11 -10z m-61 -217 c-20 -21 -24 -15 -12 19 10 27 12 29 18
13 4 -11 1 -25 -6 -32z m8 -22 c8 12 9 11 6 0 -6 -21 -21 -23 -43 -6 -19 15
-19 16 4 5 19 -10 26 -9 33 1z m36 -15 c-7 -8 -15 -12 -17 -11 -5 6 10 25 20
25 5 0 4 -6 -3 -14z m-48 -37 c0 -5 -4 -9 -8 -9 -5 0 -9 7 -9 15 0 8 4 12 9 9
4 -3 8 -9 8 -15z m33 -124 c-3 -9 -8 -14 -10 -11 -3 3 -2 9 2 15 9 16 15 13 8
-4z m-31 -30 c-6 -12 -11 -14 -16 -6 -4 6 -2 11 4 11 7 0 9 7 5 18 -5 13 -3
14 5 5 8 -7 9 -17 2 -28z m3 -135 c3 -5 1 -10 -4 -10 -6 0 -11 5 -11 10 0 6 2
10 4 10 3 0 8 -4 11 -10z m-17 -35 c9 -20 9 -23 -3 -18 -8 3 -12 9 -9 14 10
16 -9 9 -23 -8 -12 -16 -12 -14 -2 10 15 33 23 34 37 2z m-13 -63 c-3 -3 -11
0 -18 7 -9 10 -8 11 6 5 10 -3 15 -9 12 -12z m6 -69 c13 -16 12 -17 -3 -4 -10
7 -18 15 -18 17 0 8 8 3 21 -13z m-25 -4 c3 -6 1 -16 -5 -22 -9 -9 -11 -8 -6
5 4 11 0 18 -12 21 -15 4 -16 5 -1 6 9 0 20 -4 24 -10z m1025 1 c130 -24 259
-121 318 -238 120 -238 63 -471 -198 -809 -80 -103 -254 -285 -291 -303 -16
-8 -10 0 15 21 70 59 185 184 180 196 -2 7 1 12 6 10 6 -1 34 27 62 63 27 36
39 55 26 44 -17 -16 -30 -19 -44 -14 -18 8 -18 9 -2 9 12 1 16 5 10 14 -13 20
-12 35 3 41 22 8 17 29 -6 23 -24 -6 -25 -1 -4 21 11 10 13 17 5 20 -6 2 -11
8 -11 13 0 6 4 8 9 4 5 -3 12 -1 16 5 3 5 1 10 -5 10 -8 0 -8 6 0 21 6 11 10
25 7 32 -2 7 -10 1 -17 -13 -25 -50 -123 -160 -171 -195 -66 -47 -73 -45 -12
4 147 116 273 342 289 520 10 106 -13 172 -86 243 -46 45 -71 60 -116 74 -72
21 -141 14 -200 -21 -56 -33 -144 -123 -195 -199 -21 -32 -39 -53 -39 -46 0 6
25 45 56 86 133 176 258 237 393 189 22 -8 41 -12 41 -10 0 8 -65 39 -77 37
-7 -2 -13 2 -13 8 0 5 5 10 11 10 6 0 9 6 6 13 -2 6 5 18 17 24 19 11 17 12
-13 6 -32 -6 -33 -5 -22 16 13 24 26 29 17 5 -3 -8 -2 -12 4 -9 19 12 10 33
-17 44 -23 8 -18 9 27 5 30 -3 72 -12 94 -20 53 -20 57 -11 4 11 -65 26 -201
31 -274 10 -70 -20 -156 -70 -201 -117 -31 -31 -32 -37 -36 -123 l-3 -90 -2
91 -2 91 53 51 c111 104 250 148 388 122z m-1018 -55 c-3 -9 -8 -14 -10 -11
-3 3 -2 9 2 15 9 16 15 13 8 -4z m-59 -107 c8 -32 7 -38 -4 -38 -12 0 -30 41
-23 53 8 14 21 7 27 -15z m21 2 c3 -5 1 -10 -4 -10 -6 0 -11 5 -11 10 0 6 2
10 4 10 3 0 8 -4 11 -10z m25 -55 c0 -2 -9 -9 -20 -15 -12 -6 -20 -7 -20 -1 0
5 8 12 18 14 9 3 18 5 20 6 1 0 2 -1 2 -4z m-20 -79 c0 -8 -4 -18 -10 -21 -6
-3 -7 1 -4 10 5 11 2 14 -10 9 -9 -3 -16 -1 -16 5 0 6 9 11 20 11 11 0 20 -6
20 -14z m-26 -33 c5 -13 4 -14 -9 -3 -8 7 -15 9 -15 6 0 -4 -5 -4 -10 -1 -15
9 -2 25 15 19 7 -3 16 -13 19 -21z m-16 -81 c-1 -9 1 -23 5 -29 6 -9 3 -11 -7
-7 -11 4 -14 14 -10 30 5 18 2 24 -10 24 -9 0 -16 5 -16 10 0 7 7 7 21 0 11
-6 19 -19 17 -28z m49 6 c-3 -8 -6 -5 -6 6 -1 11 2 17 5 13 3 -3 4 -12 1 -19z
m330 -160 c-3 -7 -5 -2 -5 12 0 14 2 19 5 13 2 -7 2 -19 0 -25z m-347 -18 c0
-5 -2 -10 -4 -10 -3 0 -8 5 -11 10 -3 6 -1 10 4 10 6 0 11 -4 11 -10z m-49
-87 c-9 -16 -10 -15 -9 9 2 16 6 24 11 19 5 -5 5 -17 -2 -28z m-26 -93 c3 -5
1 -10 -4 -10 -6 0 -11 5 -11 10 0 6 2 10 4 10 3 0 8 -4 11 -10z m-41 -88 c3
-5 -1 -9 -9 -9 -8 0 -12 4 -9 9 3 4 7 8 9 8 2 0 6 -4 9 -8z m20 -58 c5 -14 4
-15 -9 -4 -17 14 -19 20 -6 20 5 0 12 -7 15 -16z m-19 -34 c3 -5 -1 -10 -10
-10 -9 0 -13 5 -10 10 3 6 8 10 10 10 2 0 7 -4 10 -10z m-38 -74 c-3 -7 0 -19
6 -25 8 -8 8 -11 0 -11 -20 0 -34 25 -21 38 16 16 21 15 15 -2z m1267 -39 c-3
-8 -12 -14 -21 -14 -13 0 -13 2 3 14 10 7 19 13 21 13 1 0 0 -6 -3 -13z m25
-13 c-15 -18 -22 -13 -13 10 3 9 10 13 16 10 5 -3 4 -12 -3 -20z m-1319 -34
c8 -15 8 -20 -3 -20 -7 0 -13 9 -13 20 0 11 1 20 3 20 1 0 7 -9 13 -20z m3105
-140 c3 -5 1 -10 -4 -10 -6 0 -11 5 -11 10 0 6 2 10 4 10 3 0 8 -4 11 -10z
m-220 -150 c4 -6 3 -9 -2 -8 -4 2 -10 -1 -12 -7 -2 -5 -11 -15 -20 -22 -9 -7
-11 -13 -4 -13 6 0 10 -7 9 -15 -3 -21 -16 -31 -16 -12 0 10 -6 17 -14 17 -9
0 -3 13 17 35 35 39 34 39 42 25z m82 -5 c0 -8 -4 -12 -9 -9 -5 3 -6 10 -3 15
9 13 12 11 12 -6z m-52 -27 c5 4 5 1 1 -5 -10 -18 -23 -16 -30 3 -5 13 -4 14
7 6 8 -7 18 -8 22 -4z m-118 -60 c-3 -8 -6 -5 -6 6 -1 11 2 17 5 13 3 -3 4
-12 1 -19z m113 11 c0 -5 -5 -7 -12 -3 -8 5 -9 0 -5 -16 4 -16 3 -20 -5 -12
-6 6 -8 18 -5 26 7 18 27 22 27 5z m-40 -29 c0 -5 -7 -7 -15 -4 -8 4 -15 8
-15 10 0 2 7 4 15 4 8 0 15 -4 15 -10z m-55 -20 c3 -5 1 -10 -4 -10 -6 0 -11
5 -11 10 0 6 2 10 4 10 3 0 8 -4 11 -10z m70 -11 c11 -17 0 -20 -21 -4 -17 13
-17 14 -2 15 9 0 20 -5 23 -11z m-66 -62 c-2 -1 -11 -8 -21 -15 -12 -10 -18
-10 -24 -1 -4 7 -3 9 4 5 6 -3 13 -2 17 4 3 5 11 10 17 10 6 0 9 -1 7 -3z
m-112 -21 c0 -8 -6 -12 -15 -9 -11 5 -11 7 0 14 7 5 13 9 14 9 0 0 1 -6 1 -14z
m-92 -46 c-3 -5 -12 -10 -18 -10 -7 0 -6 4 3 10 19 12 23 12 15 0z m-40 -60
c3 -5 1 -10 -4 -10 -6 0 -11 5 -11 10 0 6 2 10 4 10 3 0 8 -4 11 -10z m-75
-124 c0 -3 -4 -8 -10 -11 -5 -3 -10 -1 -10 4 0 6 5 11 10 11 6 0 10 -2 10 -4z
m-25 -104 c-3 -3 -11 0 -18 7 -9 10 -8 11 6 5 10 -3 15 -9 12 -12z m-80 -12
c3 -5 -1 -10 -10 -10 -9 0 -13 5 -10 10 3 6 8 10 10 10 2 0 7 -4 10 -10z m-14
-47 c13 -16 12 -17 -3 -4 -10 7 -18 15 -18 17 0 8 8 3 21 -13z m-61 -87 c0 -3
-4 -8 -10 -11 -5 -3 -10 -1 -10 4 0 6 5 11 10 11 6 0 10 -2 10 -4z m-83 -101
c0 -8 -4 -12 -9 -9 -5 3 -6 10 -3 15 9 13 12 11 12 -6z m-577 -117 c0 -5 -4
-8 -10 -8 -5 0 -10 10 -10 23 0 18 2 19 10 7 5 -8 10 -18 10 -22z"/>
<path d="M6473 9023 c20 -2 54 -2 75 0 20 2 3 4 -38 4 -41 0 -58 -2 -37 -4z"/>
<path d="M6338 9013 c6 -2 18 -2 25 0 6 3 1 5 -13 5 -14 0 -19 -2 -12 -5z"/>
<path d="M6623 9013 c9 -2 25 -2 35 0 9 3 1 5 -18 5 -19 0 -27 -2 -17 -5z"/>
<path d="M6698 9003 c6 -2 18 -2 25 0 6 3 1 5 -13 5 -14 0 -19 -2 -12 -5z"/>
<path d="M6758 8993 c7 -3 16 -2 19 1 4 3 -2 6 -13 5 -11 0 -14 -3 -6 -6z"/>
<path d="M7003 8918 c27 -13 45 -27 41 -31 -5 -4 0 -5 10 -1 13 5 17 4 12 -4
-5 -8 -1 -10 10 -5 12 4 15 3 10 -5 -5 -8 -2 -10 9 -5 10 3 20 2 24 -3 3 -5
20 -17 36 -26 17 -10 29 -22 28 -27 -2 -6 5 -7 14 -4 11 4 14 3 9 -6 -4 -6 -4
-11 1 -10 20 3 34 -2 28 -11 -4 -6 -3 -10 2 -9 20 3 32 -2 29 -13 -1 -7 -1 -9
2 -5 2 4 10 3 18 -4 8 -6 11 -16 7 -22 -3 -6 -1 -7 6 -3 12 8 161 -136 161
-156 0 -6 -7 -5 -17 3 -15 11 -15 10 1 -8 18 -22 18 -23 -8 -32 -33 -13 -33
-19 0 -15 21 2 23 0 13 -12 -6 -8 -19 -14 -28 -15 -13 0 -14 -2 -1 -6 8 -3 18
-11 22 -17 4 -6 13 -11 20 -11 28 0 13 -46 -22 -67 l-35 -21 30 28 c17 15 23
26 15 23 -8 -3 -21 2 -28 11 -11 14 -11 13 -2 -6 9 -20 8 -23 -9 -23 -21 0
-60 47 -55 68 1 7 0 8 -3 2 -6 -12 -40 30 -35 43 1 5 -2 6 -6 3 -5 -3 -18 4
-28 16 -18 20 -18 21 -1 15 11 -4 16 -3 12 3 -3 6 -13 10 -22 10 -9 0 -32 12
-51 27 -20 15 1 -10 45 -55 45 -45 96 -104 114 -132 17 -27 35 -47 40 -45 4 3
11 0 15 -6 5 -8 3 -9 -6 -4 -8 5 -11 3 -8 -6 3 -8 10 -15 16 -15 7 -1 17 -2
22 -3 6 0 10 -6 10 -12 0 -8 -5 -8 -15 1 -18 15 -19 9 -3 -24 13 -29 20 -32
108 -41 85 -9 201 -37 279 -69 34 -14 70 -23 79 -20 14 5 15 4 2 -5 -8 -6 -10
-11 -4 -11 6 0 42 -20 80 -44 49 -32 71 -41 77 -33 5 8 7 7 5 -3 -3 -16 114
-133 125 -125 4 3 5 2 2 -1 -6 -8 66 -96 73 -89 3 3 11 0 18 -6 10 -9 15 -7
20 5 5 13 8 14 20 1 8 -7 23 -12 34 -10 11 2 22 0 25 -5 3 -5 12 -7 19 -4 8 3
17 1 20 -5 4 -5 17 -8 30 -5 25 4 52 -18 41 -36 -3 -5 -2 -10 3 -10 8 0 20
-24 26 -52 0 -3 4 -10 9 -14 4 -4 7 -23 7 -41 0 -19 4 -32 9 -29 5 3 11 -3 14
-14 3 -11 2 -20 -1 -21 -4 0 -15 -2 -25 -4 -9 -2 -15 1 -11 6 3 5 10 7 15 4 5
-4 9 -1 9 4 0 6 -7 11 -15 11 -8 0 -12 6 -10 13 7 17 -32 41 -41 25 -4 -7 -3
-8 4 -4 7 4 12 3 12 -3 0 -5 -4 -12 -10 -16 -5 -3 -7 -13 -4 -23 5 -14 4 -14
-4 -2 -6 8 -9 17 -7 20 2 3 -7 19 -21 36 -14 16 -23 24 -20 18 3 -7 -1 -14 -9
-18 -9 -3 -12 -12 -8 -22 5 -13 3 -15 -8 -10 -8 4 -5 0 5 -8 11 -9 28 -14 38
-10 10 3 18 1 18 -4 0 -12 -63 -10 -72 3 -4 6 -5 18 -2 28 3 9 0 17 -6 17 -6
0 -8 5 -5 10 4 6 10 8 15 5 9 -6 23 25 15 33 -3 3 -5 1 -5 -5 0 -15 -38 -24
-46 -11 -4 6 0 14 7 19 11 7 10 9 -3 9 -10 0 -23 10 -29 23 -11 20 -11 21 5 8
14 -12 16 -12 10 4 -6 14 -4 16 7 10 12 -8 12 -6 0 8 -11 14 -17 15 -28 5 -11
-9 -13 -8 -11 3 2 8 7 17 12 20 12 9 -2 29 -19 29 -9 0 -12 -6 -9 -17 4 -12
-1 -9 -15 7 -27 32 -27 17 0 -21 11 -16 40 -72 65 -124 114 -240 112 -548 -3
-779 -20 -39 -22 -51 -11 -58 10 -8 10 -9 -2 -5 -10 2 -29 -18 -54 -57 -58
-90 -207 -233 -305 -294 -147 -90 -301 -134 -526 -151 -66 -4 -100 -9 -75 -10
33 -1 41 -4 30 -11 -13 -8 -13 -10 2 -10 9 0 18 6 21 13 6 17 19 2 21 -25 1
-18 7 -23 26 -21 15 1 18 0 8 -3 -10 -3 -18 -11 -18 -17 0 -7 -4 -6 -10 3 -10
17 -15 14 -24 -17 -5 -15 -3 -23 4 -23 6 0 8 -4 5 -10 -3 -5 -19 -10 -34 -10
-17 0 -36 -10 -52 -27 l-24 -28 26 23 c20 18 37 22 90 22 168 1 374 40 503 97
81 36 202 109 199 121 -1 6 5 16 15 24 15 12 16 11 3 -4 -7 -10 -9 -18 -3 -18
14 0 33 26 25 34 -4 4 -1 4 8 1 19 -7 169 146 226 230 66 98 105 174 99 191
-3 8 -2 12 4 9 5 -3 20 30 34 73 76 241 76 490 1 711 -46 136 -178 365 -207
358 -6 -1 -12 6 -13 17 -4 22 -33 53 -97 108 -41 34 -50 38 -70 28 -21 -10
-21 -10 -6 3 17 13 17 15 -1 32 -11 9 -25 14 -31 10 -6 -3 -9 -1 -8 5 4 15
-134 91 -234 130 -42 16 -134 41 -205 55 -70 14 -129 30 -131 35 -24 70 -229
292 -345 374 -68 48 -201 118 -247 130 -14 3 -3 -4 23 -16z m485 -378 c7 -12
8 -20 2 -20 -5 0 -10 -4 -10 -10 0 -5 6 -7 13 -4 16 6 74 -75 60 -85 -4 -3 -8
-12 -8 -20 0 -8 -6 -15 -13 -17 -7 -1 -8 0 -2 3 5 2 10 9 10 14 0 6 -6 7 -12
3 -9 -6 -9 -3 1 9 17 21 7 51 -15 43 -8 -3 -12 -2 -9 4 3 6 1 10 -4 10 -6 0
-11 -5 -11 -10 0 -6 -11 -3 -25 6 -14 9 -22 20 -19 25 3 5 12 3 20 -5 8 -9 21
-13 29 -10 21 8 19 22 -2 20 -12 0 -18 6 -18 19 -1 11 -4 26 -8 33 -5 6 -4 12
0 12 5 0 14 -9 21 -20z m209 -156 c-3 -3 -12 -4 -19 -1 -8 3 -5 6 6 6 11 1 17
-2 13 -5z m-82 -25 c11 -17 -1 -21 -15 -4 -8 9 -8 15 -2 15 6 0 14 -5 17 -11z
m-118 -51 c-3 -8 -6 -5 -6 6 -1 11 2 17 5 13 3 -3 4 -12 1 -19z m158 -16 c-3
-3 -11 0 -18 7 -9 10 -8 11 6 5 10 -3 15 -9 12 -12z m-110 -21 c-3 -2 -18 -5
-34 -5 -27 -1 -28 0 -14 16 12 13 19 15 34 5 10 -6 16 -13 14 -16z m39 4 c9
-14 14 -25 12 -25 -8 0 -36 31 -36 41 0 15 7 10 24 -16z m457 -12 c13 -16 12
-17 -3 -4 -10 7 -18 15 -18 17 0 8 8 3 21 -13z m-291 -34 c0 -5 -4 -9 -10 -9
-5 0 -10 5 -10 11 0 5 -5 7 -12 3 -7 -4 -8 -3 -4 4 7 12 36 5 36 -9z m570
-203 c0 -2 -8 -10 -17 -17 -16 -13 -17 -12 -4 4 13 16 21 21 21 13z m115 -117
c9 -16 14 -30 13 -32 -2 -2 5 -11 15 -21 17 -17 14 -42 -4 -30 -5 3 -7 10 -4
15 4 5 -1 9 -11 9 -13 0 -14 3 -5 14 8 10 6 19 -11 38 -24 27 -35 54 -18 43 5
-3 17 -19 25 -36z m-25 -45 c0 -3 -7 -1 -15 6 -8 7 -15 17 -15 22 0 5 7 3 15
-6 8 -8 15 -18 15 -22z m-36 0 c3 -8 2 -12 -4 -9 -6 3 -10 10 -10 16 0 14 7
11 14 -7z m95 -216 c14 -19 5 -23 -18 -9 -7 5 -10 14 -6 21 4 6 8 10 9 8 1 -2
8 -11 15 -20z m-29 -62 c0 -3 -4 -8 -10 -11 -5 -3 -10 -1 -10 4 0 6 5 11 10
11 6 0 10 -2 10 -4z m136 -24 c6 -4 14 -25 17 -47 5 -30 4 -35 -3 -17 -5 12
-15 22 -21 22 -9 0 -9 4 0 14 9 11 9 16 0 22 -8 5 -9 3 -4 -6 5 -9 4 -11 -3
-6 -13 8 -16 26 -4 26 4 0 12 -4 18 -8z m-1 -92 c3 -18 2 -20 -10 -10 -8 6
-11 18 -8 26 7 18 12 13 18 -16z m-46 -3 c8 -10 7 -14 -4 -14 -8 0 -12 4 -9 8
2 4 -4 10 -13 12 -15 4 -15 5 -2 6 9 0 22 -5 28 -12z m56 -36 c3 -5 2 -12 -3
-15 -5 -3 -9 1 -9 9 0 17 3 19 12 6z m32 -68 c-3 -10 -5 -4 -5 12 0 17 2 24 5
18 2 -7 2 -21 0 -30z m-7 -247 c0 -11 -19 -15 -25 -6 -3 5 1 10 9 10 9 0 16
-2 16 -4z m-30 -91 c-5 -6 -6 -16 -2 -20 4 -5 2 -5 -4 -2 -7 4 -14 15 -17 26
-3 14 0 17 14 14 14 -4 17 -9 9 -18z m-7 -56 c-4 -15 -8 -17 -14 -8 -6 11 4
28 18 29 0 0 -1 -9 -4 -21z m-158 -258 c3 -5 2 -12 -3 -15 -5 -3 -9 1 -9 9 0
17 3 19 12 6z m-355 -205 c0 -2 -8 -10 -17 -17 -16 -13 -17 -12 -4 4 13 16 21
21 21 13z"/>
<path d="M6458 8843 c6 -2 18 -2 25 0 6 3 1 5 -13 5 -14 0 -19 -2 -12 -5z"/>
<path d="M6698 8823 c7 -3 16 -2 19 1 4 3 -2 6 -13 5 -11 0 -14 -3 -6 -6z"/>
<path d="M6895 8771 c3 -6 10 -11 16 -11 5 0 32 -11 61 -25 61 -30 59 -29 51
-10 -3 9 -8 14 -10 11 -5 -5 -18 -1 -86 29 -22 9 -36 11 -32 6z"/>
<path d="M7070 8693 c0 -4 10 -14 23 -22 12 -8 32 -21 45 -29 40 -26 23 -6
-23 27 -25 18 -45 29 -45 24z"/>
<path d="M5425 8410 c-3 -5 -1 -10 4 -10 6 0 11 5 11 10 0 6 -2 10 -4 10 -3 0
-8 -4 -11 -10z"/>
<path d="M6693 8374 c-7 -3 -13 -10 -13 -16 0 -7 4 -7 13 -1 6 5 33 11 60 12
38 2 47 -1 47 -14 0 -13 3 -15 13 -7 7 6 21 6 34 1 26 -10 21 -45 -8 -54 -11
-4 -16 -11 -13 -17 5 -8 1 -9 -12 -4 -39 15 -73 18 -91 7 -15 -10 -14 -10 9
-5 61 14 138 -40 153 -106 15 -70 -65 -156 -138 -147 -21 3 -35 1 -31 -4 8
-14 62 -11 94 6 17 9 30 12 30 8 0 -5 9 5 19 20 10 16 22 29 27 30 5 1 7 8 6
16 -2 8 1 17 6 20 16 10 -22 111 -50 134 -18 15 -19 18 -4 13 15 -5 17 -4 7 8
-9 11 -7 15 9 19 13 3 18 10 14 21 -16 43 46 -5 72 -55 8 -17 18 -29 20 -26 8
8 -22 60 -48 83 -40 37 -90 56 -153 60 -33 2 -66 1 -72 -2z"/>
<path d="M6613 8323 c-21 -21 -27 -28 -13 -15 15 12 29 19 33 15 4 -3 7 -1 7
5 0 6 8 9 18 6 13 -5 14 -4 3 4 -11 8 -11 10 0 15 8 3 9 6 3 6 -6 1 -29 -16
-51 -36z"/>
<path d="M5208 8283 c17 -2 47 -2 65 0 17 2 3 4 -33 4 -36 0 -50 -2 -32 -4z"/>
<path d="M5060 8270 c-50 -11 1 -11 60 -1 41 8 42 8 10 8 -19 0 -51 -3 -70 -7z"/>
<path d="M6903 8265 c-17 -19 -16 -21 5 -21 10 0 19 8 19 18 2 21 -7 23 -24 3z"/>
<path d="M6555 8259 c-4 -6 -5 -12 -2 -15 2 -3 7 2 10 11 7 17 1 20 -8 4z"/>
<path d="M6674 8254 c-18 -14 -18 -15 4 -4 12 6 22 13 22 15 0 8 -5 6 -26 -11z"/>
<path d="M4988 8253 c6 -2 18 -2 25 0 6 3 1 5 -13 5 -14 0 -19 -2 -12 -5z"/>
<path d="M6698 8243 c-31 -20 -48 -52 -48 -94 0 -65 43 -108 109 -109 36 0 49
6 77 34 28 28 34 42 34 76 0 34 -6 48 -34 76 -27 27 -42 34 -72 34 -22 0 -51
-8 -66 -17z"/>
<path d="M4938 8243 c6 -2 18 -2 25 0 6 3 1 5 -13 5 -14 0 -19 -2 -12 -5z"/>
<path d="M4904 8130 c0 -63 1 -89 3 -57 2 31 2 83 0 115 -2 31 -3 5 -3 -58z"/>
<path d="M6970 8190 c0 -16 4 -30 8 -30 5 0 7 14 4 30 -2 17 -6 30 -8 30 -2 0
-4 -13 -4 -30z"/>
<path d="M5506 8195 c-9 -26 -7 -32 5 -12 6 10 9 21 6 23 -2 3 -7 -2 -11 -11z"/>
<path d="M6625 8179 c-9 -28 2 -84 20 -99 12 -10 11 -6 -1 20 -10 20 -14 45
-11 66 6 38 2 45 -8 13z"/>
<path d="M6533 8145 c0 -22 2 -30 4 -17 2 12 2 30 0 40 -3 9 -5 -1 -4 -23z"/>
<path d="M5135 8128 c-27 -4 -59 -6 -69 -4 -12 3 -15 1 -9 -5 6 -6 37 -6 79
-2 38 5 65 11 59 14 -5 3 -32 2 -60 -3z"/>
<path d="M5278 8133 c6 -2 18 -2 25 0 6 3 1 5 -13 5 -14 0 -19 -2 -12 -5z"/>
<path d="M5330 8128 c0 -4 15 -8 34 -8 18 0 54 -3 80 -6 41 -6 46 -5 46 12 0
14 -3 15 -8 6 -7 -10 -25 -11 -80 -4 -40 5 -72 5 -72 0z"/>
<path d="M6920 8130 c0 -5 5 -10 11 -10 5 0 7 5 4 10 -3 6 -8 10 -11 10 -2 0
-4 -4 -4 -10z"/>
<path d="M5218 8123 c7 -3 16 -2 19 1 4 3 -2 6 -13 5 -11 0 -14 -3 -6 -6z"/>
<path d="M6544 8096 c-3 -8 -1 -23 5 -33 8 -15 10 -12 8 14 -2 36 -5 40 -13
19z"/>
<path d="M6917 8104 c-3 -3 -2 -16 3 -29 5 -13 6 -26 2 -31 -4 -4 -2 -4 5 0 8
5 9 14 3 30 -5 13 -6 27 -3 30 4 3 4 6 1 6 -2 0 -7 -3 -11 -6z"/>
<path d="M5031 8064 c0 -11 3 -14 6 -6 3 7 2 16 -1 19 -3 4 -6 -2 -5 -13z"/>
<path d="M6876 8052 c-3 -5 1 -9 9 -9 8 0 12 4 9 9 -3 4 -7 8 -9 8 -2 0 -6 -4
-9 -8z"/>
<path d="M6569 8022 c6 -12 16 -24 22 -28 8 -4 8 -1 0 14 -6 12 -16 24 -22 28
-8 4 -8 1 0 -14z"/>
<path d="M6809 7980 c4 -14 6 -31 4 -37 -5 -14 16 -17 32 -5 15 11 14 40 -1
46 -11 4 -13 -1 -8 -19 4 -15 2 -25 -5 -25 -6 0 -8 6 -5 13 2 7 -2 21 -11 32
-14 19 -15 19 -6 -5z"/>
<path d="M6873 7975 c-3 -9 -3 -18 -1 -21 3 -3 8 4 11 16 6 23 -1 27 -10 5z"/>
<path d="M6400 7793 c-96 -97 -166 -170 -155 -162 11 8 23 19 27 24 11 15 10
-7 -2 -25 -12 -20 6 -39 30 -33 22 6 27 29 8 35 -7 3 -9 14 -4 32 4 18 12 26
20 23 10 -4 12 1 8 16 -5 20 -4 21 14 7 18 -14 18 -14 5 3 -12 15 -11 17 3 17
9 0 15 6 14 13 -2 6 5 11 14 11 10 -1 15 2 13 7 -3 4 36 51 87 104 51 53 95
98 97 101 2 2 2 4 0 4 -2 0 -83 -80 -179 -177z m-100 -177 c0 -3 -4 -8 -10
-11 -5 -3 -10 -1 -10 4 0 6 5 11 10 11 6 0 10 -2 10 -4z"/>
<path d="M6700 7930 c32 -10 100 -12 100 -2 0 4 -28 8 -63 9 -44 1 -55 -1 -37
-7z"/>
<path d="M6042 7785 l-2 -140 182 -182 183 -183 4 -958 3 -958 -63 -63 c-35
-35 -55 -59 -44 -53 11 6 42 33 68 61 l48 50 2 230 c1 213 2 228 17 211 13
-15 20 -16 28 -8 18 18 14 27 -8 21 -14 -4 -20 0 -20 11 0 9 -4 16 -10 16 -6
0 -10 35 -10 86 0 54 4 83 10 79 6 -3 10 1 10 10 0 9 7 23 15 32 9 8 13 18 10
22 -4 3 -15 -5 -25 -19 -15 -20 -20 -21 -20 -8 0 9 5 20 11 24 8 4 7 9 -2 15
-10 6 -6 8 11 5 14 -3 32 -5 41 -5 11 -1 16 -12 17 -36 1 -20 -2 -34 -6 -31
-9 5 -9 -75 -1 -89 4 -5 7 -36 7 -67 0 -43 -4 -58 -17 -63 -15 -6 -14 -7 2
-16 9 -6 17 -17 17 -25 0 -8 -4 -13 -9 -9 -5 3 -12 1 -16 -5 -3 -5 1 -10 9
-10 9 0 16 -7 16 -15 0 -14 -17 -20 -47 -16 -7 1 -13 -2 -13 -8 0 -5 14 -8 30
-7 24 2 30 -2 30 -17 0 -11 -8 -26 -17 -33 -17 -13 -17 -13 0 -14 20 0 23 -30
5 -49 -10 -11 -10 -13 0 -7 8 5 12 -1 12 -18 0 -14 -5 -26 -11 -26 -5 0 -7 -6
-2 -12 4 -7 8 -51 10 -98 l2 -85 -61 -62 c-34 -34 -66 -59 -72 -56 -6 3 -8 2
-3 -2 4 -5 -12 -29 -35 -54 -24 -25 2 -3 57 49 55 52 106 101 113 109 9 12 12
175 12 743 0 662 -3 765 -23 716 -3 -8 -6 -6 -6 5 -1 9 -4 17 -8 18 -5 0 -16
2 -25 4 -12 2 -15 -2 -11 -13 10 -29 26 -43 40 -38 9 4 13 -3 12 -22 0 -15 -3
-21 -6 -14 -2 7 -18 25 -34 41 -18 18 -29 40 -29 56 0 23 2 25 15 15 8 -6 20
-8 26 -4 8 5 9 3 4 -6 -6 -10 -4 -12 8 -7 10 3 17 2 17 -4 0 -6 5 -7 11 -4 7
5 9 88 5 272 l-5 265 -95 98 c-53 53 -96 104 -96 113 0 8 70 86 156 173 171
175 224 233 123 136 -36 -34 -69 -59 -74 -55 -4 4 -5 3 -2 -3 7 -12 -28 -46
-38 -36 -4 4 -5 1 -3 -7 2 -7 -5 -15 -15 -16 -23 -4 -35 -15 -17 -15 10 0 10
-3 0 -15 -17 -21 -31 -8 -24 22 6 23 5 24 -15 14 -25 -14 -28 -23 -4 -14 11 4
14 3 9 -6 -4 -6 -3 -18 3 -25 9 -10 5 -18 -16 -31 -15 -10 -33 -18 -40 -18 -8
0 -11 -7 -8 -18 4 -12 -2 -22 -17 -31 -13 -7 -23 -19 -24 -25 -1 -7 -2 -22 -2
-34 -1 -13 -7 -18 -14 -14 -7 4 -4 -1 6 -9 11 -9 23 -16 28 -16 18 0 6 -19
-14 -23 l-23 -4 23 -2 c21 -1 30 -15 15 -24 -5 -2 -3 -3 4 -1 20 5 22 -8 5
-34 -9 -15 -11 -23 -4 -19 7 5 12 3 12 -7 0 -20 -14 -20 -31 0 -10 12 -10 17
0 23 17 11 -44 62 -65 54 -12 -4 -14 0 -8 21 5 21 2 26 -12 28 -34 2 -39 3
-52 12 -9 5 -11 17 -7 34 5 22 4 24 -9 13 -16 -13 -17 -12 -20 12 0 6 -9 12
-18 12 -9 0 -27 11 -40 25 -21 22 -23 36 -29 165 l-5 140 -2 -140z m178 -290
c11 -13 10 -14 -4 -9 -9 3 -16 10 -16 15 0 13 6 11 20 -6z m80 -76 c0 -15 -12
-10 -31 13 -25 28 -24 32 6 12 14 -9 25 -20 25 -25z m76 20 c20 -22 29 -109
12 -109 -5 0 -6 -5 -3 -11 4 -6 14 -8 22 -5 8 3 11 2 8 -3 -3 -5 -1 -12 5 -16
5 -3 10 -1 10 4 0 6 4 11 9 11 5 0 4 -11 -2 -25 -8 -15 -14 -19 -17 -11 -3 7
-22 27 -42 45 -21 18 -38 38 -38 44 0 7 4 7 12 -1 15 -15 32 -16 23 -2 -4 6
-1 17 5 25 12 15 6 35 -12 35 -5 0 -7 -7 -4 -16 6 -15 4 -15 -10 -3 -10 8 -12
15 -5 17 15 5 14 29 -1 35 -8 3 -8 6 -2 6 6 1 19 -8 30 -20z m88 -84 c20 -31
11 -33 -15 -2 -10 12 -18 17 -19 10 0 -7 -7 -10 -17 -6 -15 6 -15 7 3 14 29
11 30 11 48 -16z m26 -67 c0 -19 -16 -5 -17 14 -2 18 0 20 7 8 5 -8 10 -18 10
-22z m-30 -23 c0 -8 -2 -15 -4 -15 -2 0 -6 7 -10 15 -3 8 -1 15 4 15 6 0 10
-7 10 -15z m30 -90 c0 -14 -4 -25 -9 -25 -4 0 -6 11 -3 25 2 14 6 25 8 25 2 0
4 -11 4 -25z m0 -45 c0 -5 -2 -10 -4 -10 -3 0 -8 5 -11 10 -3 6 -1 10 4 10 6
0 11 -4 11 -10z m-10 -110 c-8 -5 -17 -7 -19 -4 -3 3 1 9 9 14 8 5 17 7 19 4
3 -3 -1 -9 -9 -14z m-45 -150 c-3 -4 0 -11 5 -13 6 -3 5 -4 -2 -3 -7 1 -15 11
-16 21 -3 11 0 15 7 10 6 -3 9 -10 6 -15z m5 -135 c11 -13 10 -14 -4 -9 -9 3
-16 10 -16 15 0 13 6 11 20 -6z m-5 -45 c3 -5 1 -10 -4 -10 -6 0 -11 5 -11 10
0 6 2 10 4 10 3 0 8 -4 11 -10z m44 -61 c-7 -4 -17 -5 -21 -3 -4 3 -8 -1 -9
-8 0 -10 -2 -10 -6 0 -2 6 -8 10 -12 8 -4 -3 -7 7 -8 22 0 15 1 19 4 10 5 -19
23 -25 23 -8 0 6 4 10 10 10 5 0 6 -7 3 -17 -4 -11 -3 -14 5 -9 7 4 13 19 13
34 l2 27 4 -29 c3 -17 -1 -32 -8 -37z m-39 -213 c0 -3 -4 -8 -10 -11 -5 -3
-10 -1 -10 4 0 6 5 11 10 11 6 0 10 -2 10 -4z m36 -8 c4 -7 3 -8 -4 -4 -7 4
-12 1 -12 -8 0 -9 -6 -15 -12 -13 -7 1 -12 -6 -10 -15 2 -10 -2 -18 -8 -18
-17 0 -11 22 12 47 25 27 25 27 34 11z m22 -82 c0 -22 -4 -24 -29 -19 -25 5
-29 3 -29 -18 0 -17 -3 -20 -11 -12 -6 6 -8 20 -5 31 5 14 13 18 31 14 17 -3
27 1 31 12 9 22 12 20 12 -8z m2 -57 c0 -4 -11 -6 -25 -5 -14 0 -25 4 -25 8 0
4 11 7 25 6 14 -1 25 -5 25 -9z m-39 -29 c10 0 19 -4 19 -8 0 -5 -13 -7 -29
-4 -22 3 -28 8 -23 20 4 10 7 12 10 4 2 -7 12 -12 23 -12z m23 -36 c25 -9 19
-24 -10 -24 -17 0 -23 4 -18 13 6 9 4 9 -8 -1 -9 -7 -19 -9 -22 -4 -12 19 24
29 58 16z m-34 -44 c8 -5 11 -10 5 -10 -5 0 -17 5 -25 10 -8 5 -10 10 -5 10 6
0 17 -5 25 -10z m44 1 c10 -15 -5 -40 -20 -34 -8 3 -11 9 -8 14 3 5 10 7 15 4
5 -4 9 -2 9 4 0 5 -6 12 -12 14 -10 4 -10 6 -1 6 6 1 14 -3 17 -8z m-59 -30
c3 -5 1 -12 -5 -16 -5 -3 -10 1 -10 9 0 18 6 21 15 7z m32 -27 c-3 -3 -12 -4
-19 -1 -8 3 -5 6 6 6 11 1 17 -2 13 -5z"/>
<path d="M6132 7769 c-2 -60 2 -79 16 -95 10 -10 16 -26 14 -35 -2 -13 4 -17
22 -15 l25 1 -34 35 c-32 33 -34 40 -38 110 l-3 75 -2 -76z"/>
<path d="M8360 7824 c0 -19 16 -32 41 -32 15 0 26 6 26 14 0 10 -5 10 -20 2
-16 -8 -23 -7 -34 8 -7 10 -13 14 -13 8z"/>
<path d="M8480 7802 c0 -6 -10 -8 -22 -4 -14 3 -19 2 -14 -6 9 -14 42 -16 51
-3 3 5 1 12 -5 16 -5 3 -10 2 -10 -3z"/>
<path d="M8400 7760 c0 -14 41 -53 47 -46 4 3 -6 17 -20 30 -15 14 -27 21 -27
16z"/>
<path d="M8463 7740 c13 -34 28 -41 19 -8 -4 16 -2 19 9 13 8 -5 11 -4 6 1 -5
5 -12 9 -15 9 -4 0 -12 4 -19 8 -9 5 -9 0 0 -23z"/>
<path d="M8500 7694 c0 -5 9 -15 20 -22 17 -10 20 -10 20 5 0 9 -3 13 -7 10
-3 -4 -12 -2 -20 4 -7 6 -13 7 -13 3z"/>
<path d="M6315 7661 c-3 -5 -1 -12 5 -16 5 -3 10 1 10 9 0 18 -6 21 -15 7z"/>
<path d="M6095 7640 c-3 -6 1 -7 9 -4 18 7 21 14 7 14 -6 0 -13 -4 -16 -10z"/>
<path d="M6230 7596 c0 -2 8 -10 18 -17 15 -13 16 -12 3 4 -13 16 -21 21 -21
13z"/>
<path d="M6270 7488 c0 -12 3 -17 8 -12 4 5 11 12 15 15 5 3 2 9 -7 12 -12 5
-16 0 -16 -15z"/>
<path d="M5031 7324 c0 -11 3 -14 6 -6 3 7 2 16 -1 19 -3 4 -6 -2 -5 -13z"/>
<path d="M5032 7218 c-1 -58 -6 -88 -14 -91 -10 -4 -10 -6 0 -6 17 -1 15 -21
-3 -21 -14 0 -71 -50 -57 -50 12 0 -22 -20 -35 -20 -7 0 -13 19 -16 48 -2 30
-4 18 -5 -35 l-2 -83 43 0 c52 0 155 -24 224 -51 29 -12 57 -18 64 -13 8 5 9
3 4 -6 -6 -10 -4 -12 9 -7 9 4 15 3 12 -2 -3 -4 12 -16 33 -26 21 -9 58 -30
82 -46 47 -31 59 -35 59 -19 0 5 -11 12 -25 16 -14 3 -25 10 -25 15 0 5 -6 9
-14 9 -8 0 -18 5 -22 11 -4 8 1 9 16 4 15 -5 20 -4 16 4 -4 6 -1 11 7 11 8 0
18 -7 21 -16 3 -8 11 -12 17 -8 17 10 29 -16 19 -41 -7 -19 1 -28 68 -76 97
-69 106 -74 98 -61 -3 6 -2 13 3 16 11 7 53 -43 46 -54 -2 -4 15 -22 38 -41
47 -37 46 -35 -40 71 -154 191 -336 333 -518 405 -38 15 -75 32 -82 37 -8 6
-14 47 -16 111 l-3 102 -2 -87z m38 -158 c0 -5 -2 -10 -4 -10 -3 0 -8 5 -11
10 -3 6 -1 10 4 10 6 0 11 -4 11 -10z m298 -155 c-3 -3 -9 2 -12 12 -6 14 -5
15 5 6 7 -7 10 -15 7 -18z m32 -25 c0 -4 -9 -6 -21 -3 -15 4 -17 8 -8 14 14 8
29 3 29 -11z m35 -20 c3 -5 -1 -10 -9 -10 -9 0 -16 5 -16 10 0 6 4 10 9 10 6
0 13 -4 16 -10z m66 -57 c13 -16 23 -31 21 -35 -1 -5 4 -8 11 -8 6 0 27 -16
46 -35 26 -27 32 -38 23 -47 -9 -9 -12 -9 -12 0 0 7 -7 12 -15 12 -7 0 -19 8
-24 18 -6 9 -11 13 -11 9 0 -5 -14 2 -31 14 -23 16 -29 27 -25 43 5 20 5 21
-9 2 -16 -21 -17 -19 -17 14 0 50 8 52 43 13z"/>
<path d="M5496 6763 c-6 -14 -5 -15 5 -6 7 7 10 15 7 18 -3 3 -9 -2 -12 -12z"/>
<path d="M4950 7080 c0 -5 5 -10 10 -10 6 0 10 5 10 10 0 6 -4 10 -10 10 -5 0
-10 -4 -10 -10z"/>
<path d="M4920 7060 c0 -5 5 -10 11 -10 5 0 7 5 4 10 -3 6 -8 10 -11 10 -2 0
-4 -4 -4 -10z"/>
<path d="M5394 6825 c11 -8 27 -15 35 -15 9 0 3 7 -13 15 -36 19 -47 19 -22 0z"/>
<path d="M7272 6030 c0 -19 2 -27 5 -17 2 9 2 25 0 35 -3 9 -5 1 -5 -18z"/>
<path d="M6458 5983 c7 -3 16 -2 19 1 4 3 -2 6 -13 5 -11 0 -14 -3 -6 -6z"/>
<path d="M7274 5835 c0 -82 2 -115 3 -72 2 43 2 110 0 150 -1 40 -3 5 -3 -78z"/>
<path d="M6450 5960 c0 -5 5 -10 10 -10 6 0 10 5 10 10 0 6 -4 10 -10 10 -5 0
-10 -4 -10 -10z"/>
<path d="M6470 5880 c0 -5 5 -10 10 -10 6 0 10 5 10 10 0 6 -4 10 -10 10 -5 0
-10 -4 -10 -10z"/>
<path d="M6445 5860 c3 -5 8 -10 11 -10 2 0 4 5 4 10 0 6 -5 10 -11 10 -5 0
-7 -4 -4 -10z"/>
<path d="M6464 5839 c-19 -22 -19 -22 4 -8 12 8 22 17 22 21 0 12 -6 9 -26
-13z"/>
<path d="M7143 5765 c0 -22 2 -30 4 -17 2 12 2 30 0 40 -3 9 -5 -1 -4 -23z"/>
<path d="M6445 5720 c3 -5 8 -10 11 -10 2 0 4 5 4 10 0 6 -5 10 -11 10 -5 0
-7 -4 -4 -10z"/>
<path d="M6435 5661 c-7 -12 31 -25 45 -16 5 3 10 10 10 16 0 12 -47 12 -55 0z"/>
<path d="M6445 5610 c3 -5 8 -10 11 -10 2 0 4 5 4 10 0 6 -5 10 -11 10 -5 0
-7 -4 -4 -10z"/>
<path d="M7381 5590 c14 -31 19 -36 19 -24 0 6 -7 19 -16 30 -14 18 -14 18 -3
-6z"/>
<path d="M7138 5560 c-39 -30 -52 -71 -38 -114 39 -119 200 -90 200 35 0 41
-15 66 -50 84 -40 21 -82 19 -112 -5z"/>
<path d="M6446 5527 c-15 -16 -16 -19 -3 -14 8 3 18 3 20 -1 2 -4 3 -2 1 4 -1
6 3 17 9 23 6 6 7 11 2 10 -6 0 -19 -10 -29 -22z"/>
<path d="M7401 5534 c0 -11 3 -14 6 -6 3 7 2 16 -1 19 -3 4 -6 -2 -5 -13z"/>
<path d="M7413 5475 c0 -22 2 -30 4 -17 2 12 2 30 0 40 -3 9 -5 -1 -4 -23z"/>
<path d="M7322 5470 c0 -14 2 -19 5 -12 2 6 2 18 0 25 -3 6 -5 1 -5 -13z"/>
<path d="M6460 5470 c0 -5 5 -10 11 -10 5 0 7 5 4 10 -3 6 -8 10 -11 10 -2 0
-4 -4 -4 -10z"/>
<path d="M6443 5444 c0 -8 3 -12 5 -9 3 3 11 0 19 -7 11 -8 12 -7 7 5 -7 21
-31 29 -31 11z"/>
<path d="M7393 5393 c-10 -34 -10 -36 3 -19 12 17 20 56 11 56 -1 0 -7 -17
-14 -37z"/>
<path d="M6436 5388 c-9 -34 -8 -38 10 -31 8 3 13 12 9 21 -5 13 -3 13 12 1
15 -11 15 -10 -1 9 -23 27 -22 27 -30 0z"/>
<path d="M7140 5208 c0 -27 5 -48 10 -48 13 0 13 60 0 80 -7 11 -10 2 -10 -32z"/>
<path d="M7200 5153 c0 -7 4 -13 9 -13 5 0 11 6 14 13 3 8 -1 14 -9 14 -8 0
-14 -6 -14 -14z"/>
<path d="M7095 5090 c-33 -33 -55 -60 -48 -60 6 0 15 5 18 10 3 6 18 10 33 10
21 0 24 2 12 10 -12 8 -11 10 6 10 11 0 24 -4 30 -10 5 -5 15 -6 22 -1 9 5 8
12 -4 27 -13 16 -15 16 -10 2 7 -23 -7 -23 -25 -1 -10 12 -10 15 -1 9 7 -4 11
-4 10 1 -1 4 3 18 10 31 7 12 11 22 10 22 -2 0 -30 -27 -63 -60z"/>
<path d="M7210 5055 c-7 -9 -8 -15 -2 -15 5 0 12 7 16 15 3 8 4 15 2 15 -2 0
-9 -7 -16 -15z"/>
<path d="M7045 4980 c3 -5 8 -10 11 -10 2 0 4 5 4 10 0 6 -5 10 -11 10 -5 0
-7 -4 -4 -10z"/>
<path d="M6560 4545 c-18 -19 -20 -24 -7 -19 9 3 17 10 17 15 0 5 5 9 11 9 5
0 7 -4 4 -10 -3 -5 -1 -10 4 -10 13 0 14 10 3 28 -6 9 -15 6 -32 -13z"/>
<path d="M6389 4373 c-13 -16 -12 -17 4 -4 9 7 17 15 17 17 0 8 -8 3 -21 -13z"/>
<path d="M6163 4293 c9 -2 25 -2 35 0 9 3 1 5 -18 5 -19 0 -27 -2 -17 -5z"/>
<path d="M4538 8253 c7 -3 16 -2 19 1 4 3 -2 6 -13 5 -11 0 -14 -3 -6 -6z"/>
<path d="M4397 8229 c-43 -10 -86 -24 -95 -30 -15 -9 -14 -10 3 -4 61 20 191
46 207 42 10 -3 16 -1 12 4 -8 13 -38 10 -127 -12z"/>
<path d="M4598 8168 c5 -89 9 -97 11 -20 0 39 -2 72 -6 72 -5 0 -7 -24 -5 -52z"/>
<path d="M4228 8169 c-21 -11 -38 -22 -38 -24 0 -5 79 32 89 41 12 11 -18 1
-51 -17z"/>
<path d="M4160 8130 c-9 -6 -10 -10 -3 -10 6 0 15 5 18 10 8 12 4 12 -15 0z"/>
<path d="M4120 8110 c-9 -6 -10 -10 -3 -10 6 0 15 5 18 10 8 12 4 12 -15 0z"/>
<path d="M4058 8079 c-21 -11 -38 -22 -38 -24 0 -3 18 4 40 15 22 11 40 23 40
25 0 7 0 7 -42 -16z"/>
<path d="M4572 8086 c7 -8 15 -12 17 -11 5 6 -10 25 -20 25 -5 0 -4 -6 3 -14z"/>
<path d="M4590 8055 c-7 -8 -8 -15 -4 -15 5 0 10 -32 12 -72 3 -104 12 -97 12
10 0 51 -2 92 -4 92 -2 0 -9 -7 -16 -15z"/>
<path d="M4555 8031 c-3 -5 -2 -12 3 -15 5 -3 9 1 9 9 0 17 -3 19 -12 6z"/>
<path d="M3949 8003 c-13 -16 -12 -17 4 -4 16 13 21 21 13 21 -2 0 -10 -8 -17
-17z"/>
<path d="M4527 7979 c7 -7 15 -10 18 -7 3 3 -2 9 -12 12 -14 6 -15 5 -6 -5z"/>
<path d="M4561 7934 c0 -11 3 -14 6 -6 3 7 2 16 -1 19 -3 4 -6 -2 -5 -13z"/>
<path d="M3849 7923 c-13 -16 -12 -17 4 -4 9 7 17 15 17 17 0 8 -8 3 -21 -13z"/>
<path d="M4540 7923 c0 -6 8 -17 18 -24 16 -13 16 -13 2 6 -8 11 -16 22 -17
24 -2 2 -3 0 -3 -6z"/>
<path d="M4526 7884 c-8 -20 -8 -24 2 -24 4 0 8 9 9 20 2 24 -3 26 -11 4z"/>
<path d="M4461 7860 c-9 -5 -4 -7 13 -7 29 0 32 2 13 10 -8 3 -20 2 -26 -3z"/>
<path d="M4550 7855 c0 -8 6 -15 14 -15 8 0 17 -6 19 -12 4 -10 6 -10 6 0 1
13 -22 42 -33 42 -3 0 -6 -7 -6 -15z"/>
<path d="M4471 7812 c-8 -15 -5 -18 14 -20 13 -1 27 3 31 9 4 8 -1 9 -16 4
-19 -6 -22 -4 -17 9 9 22 0 20 -12 -2z"/>
<path d="M4531 7799 c-13 -17 -20 -33 -17 -36 3 -3 9 2 12 11 5 14 9 15 16 4
8 -10 9 -9 4 4 -3 10 2 24 10 33 9 8 11 15 7 15 -5 0 -19 -14 -32 -31z"/>
<path d="M4450 7750 c0 -5 5 -10 11 -10 5 0 7 5 4 10 -3 6 -8 10 -11 10 -2 0
-4 -4 -4 -10z"/>
<path d="M4376 7733 c-6 -14 -5 -15 5 -6 7 7 10 15 7 18 -3 3 -9 -2 -12 -12z"/>
<path d="M4433 7702 c10 -10 14 -22 10 -27 -5 -4 -2 -5 5 -1 11 6 10 12 -4 27
-9 10 -19 19 -22 19 -3 0 2 -8 11 -18z"/>
<path d="M4444 7510 c0 -11 4 -20 9 -20 5 0 2 -11 -7 -25 -14 -21 -14 -24 -1
-19 8 4 15 11 15 18 0 6 9 12 20 12 25 0 26 -13 3 -19 -15 -4 -15 -5 -2 -6 9
0 23 7 31 17 13 15 12 19 -10 40 l-25 24 7 -27 c5 -20 3 -26 -6 -23 -7 3 -13
10 -13 16 0 6 -5 16 -10 21 -7 8 -11 5 -11 -9z"/>
<path d="M4342 7398 c7 -15 15 -23 17 -17 2 6 -4 18 -13 27 -15 15 -15 15 -4
-10z"/>
<path d="M4345 7261 c-3 -5 -1 -12 5 -16 5 -3 10 1 10 9 0 18 -6 21 -15 7z"/>
<path d="M4375 7250 c3 -5 8 -10 11 -10 2 0 4 5 4 10 0 6 -5 10 -11 10 -5 0
-7 -4 -4 -10z"/>
<path d="M4410 7240 c-12 -8 -10 -10 8 -10 13 0 20 4 17 10 -7 12 -6 12 -25 0z"/>
<path d="M4300 7180 c0 -6 7 -10 15 -10 8 0 15 2 15 4 0 2 -7 6 -15 10 -8 3
-15 1 -15 -4z"/>
<path d="M4343 7166 c0 -27 11 -34 23 -15 3 6 0 18 -9 26 -13 13 -14 12 -14
-11z"/>
<path d="M4296 7012 c-3 -5 5 -8 17 -8 15 1 22 -5 21 -16 -2 -20 12 -24 18 -6
9 25 -42 52 -56 30z"/>
<path d="M4313 6955 c0 -8 4 -12 9 -9 5 3 6 10 3 15 -9 13 -12 11 -12 -6z"/>
<path d="M4230 6716 c0 -3 14 -12 30 -21 17 -9 30 -13 30 -11 0 3 -13 12 -30
21 -16 9 -30 13 -30 11z"/>
<path d="M4308 6713 c7 -3 16 -2 19 1 4 3 -2 6 -13 5 -11 0 -14 -3 -6 -6z"/>
<path d="M4240 6533 c8 -3 22 -11 30 -17 13 -10 13 -9 1 7 -7 9 -21 17 -30 16
-13 0 -14 -1 -1 -6z"/>
<path d="M4246 6494 c-8 -20 -8 -24 2 -24 4 0 8 9 9 20 2 24 -3 26 -11 4z"/>
<path d="M4211 6474 c0 -11 3 -14 6 -6 3 7 2 16 -1 19 -3 4 -6 -2 -5 -13z"/>
<path d="M4220 6426 c0 -2 7 -6 15 -10 8 -3 15 -1 15 4 0 6 -7 10 -15 10 -8 0
-15 -2 -15 -4z"/>
<path d="M4264 6406 c-3 -9 -11 -13 -18 -9 -6 4 -5 -1 3 -10 16 -21 35 -22 28
-3 -3 8 -1 16 6 19 8 2 8 5 -1 11 -7 4 -15 1 -18 -8z"/>
<path d="M3228 6390 c-31 -4 -71 -16 -89 -26 -72 -42 -112 -202 -74 -300 20
-53 102 -140 171 -180 39 -23 58 -27 118 -27 60 -1 95 8 225 52 94 32 188 57
243 64 l89 12 -49 66 c-65 85 -173 191 -241 236 -75 50 -175 90 -241 98 -30 3
-64 7 -75 9 -11 2 -45 0 -77 -4z m314 -391 c-2 -7 2 -15 8 -19 7 -4 2 -16 -14
-33 -13 -14 -21 -29 -17 -33 3 -4 -2 -5 -11 -1 -9 3 -19 0 -22 -9 -3 -8 -10
-14 -16 -14 -7 0 -7 6 0 21 6 11 12 49 13 84 l2 63 30 -23 c17 -13 29 -29 27
-36z"/>
<path d="M4199 6371 c8 -5 10 -14 6 -21 -5 -9 -4 -11 3 -6 18 11 14 36 -5 36
-14 0 -15 -2 -4 -9z"/>
<path d="M4152 6004 c-7 -8 -8 -14 -3 -14 10 0 25 19 20 25 -2 1 -10 -3 -17
-11z"/>
<path d="M4130 5792 c0 -5 7 -15 15 -22 8 -7 15 -9 15 -6 0 4 -7 14 -15 22 -8
9 -15 11 -15 6z"/>
<path d="M4115 5719 c-4 -6 -5 -12 -2 -15 2 -3 7 2 10 11 7 17 1 20 -8 4z"/>
<path d="M4099 5608 c-6 -22 -5 -38 2 -38 6 0 7 -5 3 -12 -5 -8 -2 -9 9 -5 10
3 17 2 17 -2 0 -5 -6 -12 -12 -14 -8 -3 -7 -6 4 -6 20 -1 37 21 20 27 -7 2
-19 11 -28 19 -13 13 -13 17 -2 24 10 7 10 9 1 9 -7 0 -13 -1 -14 -2z"/>
<path d="M4060 5571 c0 -10 19 -25 25 -20 1 2 -3 10 -11 17 -8 7 -14 8 -14 3z"/>
<path d="M4081 5521 c-8 -5 -9 -11 -3 -15 5 -3 12 1 16 9 6 17 6 18 -13 6z"/>
<path d="M4021 5234 c0 -11 3 -14 6 -6 3 7 2 16 -1 19 -3 4 -6 -2 -5 -13z"/>
<path d="M4009 5183 c-13 -16 -12 -17 4 -4 9 7 17 15 17 17 0 8 -8 3 -21 -13z"/>
<path d="M4036 5164 c-4 -10 -2 -22 4 -28 16 -16 12 -26 -7 -20 -15 5 -16 4
-3 -5 12 -8 21 -4 42 22 29 35 28 40 -6 44 -15 2 -26 -3 -30 -13z m39 -3 c7
-12 -12 -24 -25 -16 -11 7 -4 25 10 25 5 0 11 -4 15 -9z"/>
<path d="M4013 5083 c2 -10 -3 -31 -11 -48 -16 -31 -23 -117 -10 -108 5 2 8
21 8 41 0 20 9 56 19 79 19 40 18 53 -1 53 -5 0 -8 -8 -5 -17z"/>
<path d="M3982 4880 c-1 -20 -8 -42 -14 -49 -8 -9 -8 -11 -2 -8 8 5 12 -11 13
-53 1 -59 0 -60 -22 -50 -21 11 -21 11 -3 -4 11 -9 21 -31 22 -49 2 -30 2 -31
-12 -13 -8 11 -14 16 -14 10 0 -5 7 -18 15 -28 8 -11 15 -27 15 -35 -1 -13 -2
-13 -11 2 -5 9 -14 17 -20 17 -5 0 -1 -10 10 -21 16 -18 19 -33 16 -91 -2 -38
-6 -72 -9 -75 -3 -4 -6 2 -6 13 -1 20 -22 54 -34 54 -4 0 -5 -4 -2 -9 4 -5 0
-12 -6 -15 -7 -3 -6 -4 4 -3 9 1 16 -2 15 -8 -1 -5 -8 -9 -14 -9 -7 1 -10 -3
-7 -8 4 -6 0 -15 -7 -20 -11 -8 -10 -9 4 -4 9 3 17 1 17 -5 0 -6 5 -7 10 -4 6
3 10 -5 10 -19 0 -20 4 -24 17 -19 11 4 14 3 9 -5 -10 -17 -36 -15 -36 2 0 9
-8 13 -22 10 -13 -2 -17 -2 -10 2 6 3 12 10 12 16 0 6 -6 6 -15 -2 -22 -18
-19 -26 18 -44 17 -8 27 -16 21 -16 -7 0 -15 -7 -18 -16 -5 -14 -4 -15 9 -4
22 18 18 -4 -4 -24 -21 -19 -33 -64 -19 -72 5 -3 -6 -17 -24 -30 -18 -14 -32
-27 -30 -29 1 -3 2 -12 2 -21 0 -11 -5 -14 -17 -10 -14 6 -14 3 3 -15 21 -24
26 -66 7 -66 -9 0 -9 6 -2 21 10 20 10 21 -5 2 -9 -11 -16 -28 -16 -37 0 -10
-4 -21 -10 -24 -5 -3 -10 -11 -10 -18 0 -6 7 -2 15 9 15 19 15 19 8 -1 -6 -17
-5 -18 9 -7 13 10 18 10 24 1 4 -8 3 -9 -4 -5 -11 6 -16 -5 -13 -26 0 -4 -5
-5 -12 -3 -8 4 -12 -5 -12 -25 0 -16 5 -30 11 -30 6 0 11 -7 11 -15 0 -8 -5
-11 -10 -8 -5 3 -13 0 -17 -7 -5 -8 -9 -7 -13 5 -4 9 -3 14 3 10 6 -4 8 3 6
17 -3 13 -5 30 -5 38 -1 13 -2 13 -11 0 -6 -9 -5 -17 2 -21 7 -4 3 -13 -10
-25 -16 -13 -19 -21 -11 -31 6 -7 16 -10 21 -7 6 4 8 -2 3 -15 -4 -13 -2 -21
5 -21 6 0 9 4 5 9 -3 5 -1 12 5 16 5 3 10 -3 10 -14 0 -12 -5 -21 -12 -21 -6
0 -8 -3 -5 -7 4 -3 2 -12 -4 -20 -8 -9 -8 -13 -1 -13 6 0 9 -11 6 -26 -4 -21
-2 -25 11 -21 8 4 15 2 15 -3 0 -6 -7 -10 -16 -10 -11 0 -15 -6 -11 -20 3 -10
0 -18 -5 -17 -6 1 -13 -4 -16 -12 -3 -10 0 -12 13 -7 14 5 16 4 7 -7 -7 -8 -9
-17 -5 -20 3 -4 -2 -7 -12 -7 -14 0 -15 -3 -6 -14 9 -11 6 -16 -19 -24 -16 -6
-30 -14 -30 -18 0 -3 7 -4 15 -1 21 9 28 -10 8 -22 -16 -9 -16 -10 -1 -11 9 0
20 5 23 10 4 6 11 7 17 4 6 -4 8 1 4 12 -3 11 -2 25 3 33 6 9 8 2 7 -20 -1
-19 -7 -34 -13 -34 -7 0 -17 -5 -23 -11 -17 -17 -50 -6 -44 14 3 10 -1 7 -7
-6 -10 -18 -10 -25 1 -35 10 -9 11 -9 6 1 -4 6 -3 12 2 12 6 0 12 -7 16 -15 6
-18 -24 -21 -41 -4 -8 8 -17 7 -33 -4 -17 -12 -18 -16 -6 -20 9 -4 15 -1 13 5
-1 6 5 13 13 16 8 2 12 1 8 -3 -5 -5 1 -15 12 -22 19 -13 26 -10 84 31 108 77
158 147 176 248 6 32 9 275 7 608 -1 305 -3 539 -5 520z m-32 -440 c0 -5 -5
-10 -11 -10 -5 0 -7 5 -4 10 3 6 8 10 11 10 2 0 4 -4 4 -10z m30 -24 c0 -3 -4
-8 -10 -11 -5 -3 -10 -1 -10 4 0 6 5 11 10 11 6 0 10 -2 10 -4z m0 -70 c0 -3
-4 -8 -10 -11 -5 -3 -10 -1 -10 4 0 6 5 11 10 11 6 0 10 -2 10 -4z m0 -82 c0
-2 -9 0 -20 6 -11 6 -20 13 -20 16 0 2 9 0 20 -6 11 -6 20 -13 20 -16z m-46
-24 c-6 -6 -10 -2 -11 12 -2 16 1 18 10 9 7 -7 8 -14 1 -21z m-7 -67 c1 -19
-1 -22 -8 -12 -11 17 -12 39 -1 39 4 0 8 -12 9 -27z m-33 -2 c3 -5 -1 -11 -9
-14 -9 -4 -12 -1 -8 9 6 16 10 17 17 5z m73 -17 c-3 -3 -12 -4 -19 -1 -8 3 -5
6 6 6 11 1 17 -2 13 -5z m-71 -23 c19 16 37 0 24 -21 -7 -10 -10 -11 -10 -2 0
8 -8 10 -25 6 -14 -3 -25 -2 -25 3 0 15 14 25 18 13 3 -8 8 -7 18 1z m4 -41
c0 -5 -4 -10 -10 -10 -5 0 -10 5 -10 10 0 6 5 10 10 10 6 0 10 -4 10 -10z m-6
-49 c3 -5 -1 -11 -9 -14 -9 -4 -12 -1 -8 9 6 16 10 17 17 5z m-34 -11 c0 -5
-2 -10 -4 -10 -3 0 -8 5 -11 10 -3 6 -1 10 4 10 6 0 11 -4 11 -10z m-60 -150
c0 -5 -2 -10 -4 -10 -3 0 -8 5 -11 10 -3 6 -1 10 4 10 6 0 11 -4 11 -10z m65
-78 c-3 -3 -11 0 -18 7 -9 10 -8 11 6 5 10 -3 15 -9 12 -12z m2 -59 c1 -22 -1
-24 -8 -10 -6 9 -7 22 -4 27 9 14 10 13 12 -17z"/>
<path d="M3913 4885 c0 -7 6 -11 14 -8 7 3 13 6 13 8 0 2 -6 5 -13 8 -8 3 -14
-1 -14 -8z"/>
<path d="M3920 4640 c-12 -7 -10 -9 7 -7 12 0 19 5 17 9 -6 10 -6 10 -24 -2z"/>
<path d="M3910 4560 c0 -5 7 -6 17 -3 11 4 14 3 9 -5 -5 -8 -2 -10 8 -6 25 9
19 24 -9 24 -14 0 -25 -4 -25 -10z"/>
<path d="M3946 4524 c-3 -9 0 -24 7 -35 12 -17 13 -15 13 16 -1 37 -10 45 -20
19z"/>
<path d="M3920 4519 c0 -5 5 -7 10 -4 6 3 10 8 10 11 0 2 -4 4 -10 4 -5 0 -10
-5 -10 -11z"/>
<path d="M3855 4350 c-3 -6 1 -7 9 -4 18 7 21 14 7 14 -6 0 -13 -4 -16 -10z"/>
<path d="M3906 4347 c3 -10 9 -15 12 -12 3 3 0 11 -7 18 -10 9 -11 8 -5 -6z"/>
<path d="M3894 4323 c3 -6 0 -14 -6 -16 -10 -4 -10 -6 0 -6 6 -1 12 -6 12 -11
0 -6 -10 -9 -22 -7 -13 2 -18 2 -11 0 18 -6 23 -31 13 -59 -8 -20 -7 -25 2
-22 7 3 13 18 13 35 0 17 7 38 14 47 12 15 12 19 -4 34 -10 9 -15 12 -11 5z"/>
<path d="M3820 4089 c0 -5 -4 -8 -8 -5 -4 2 -8 -4 -8 -15 0 -19 1 -19 13 -3
13 18 17 34 8 34 -3 0 -5 -5 -5 -11z"/>
<path d="M3757 3855 c3 -8 9 -12 14 -9 12 7 11 11 -5 17 -10 4 -13 1 -9 -8z"/>
<path d="M3785 3800 c3 -5 8 -10 11 -10 2 0 4 5 4 10 0 6 -5 10 -11 10 -5 0
-7 -4 -4 -10z"/>
<path d="M3777 3773 c5 -12 3 -14 -7 -8 -8 5 -11 4 -6 -3 7 -12 36 -5 36 8 0
4 -7 10 -14 13 -11 4 -13 1 -9 -10z"/>
<path d="M3790 3741 c0 -6 4 -13 10 -16 6 -3 7 1 4 9 -7 18 -14 21 -14 7z"/>
<path d="M3760 3699 c0 -6 5 -7 10 -4 6 3 10 1 10 -5 0 -6 5 -8 10 -5 16 10
11 21 -10 22 -11 1 -20 -3 -20 -8z"/>
<path d="M3716 3681 c6 -6 21 -14 34 -16 13 -2 27 -10 32 -17 5 -8 8 -9 8 -2
0 15 -29 39 -37 31 -3 -4 -15 -1 -27 5 -16 8 -18 8 -10 -1z"/>
<path d="M3724 3645 c4 -11 0 -25 -9 -35 -14 -15 -14 -18 0 -30 10 -8 15 -9
15 -1 0 6 -5 11 -11 11 -5 0 -8 4 -4 10 3 5 12 7 20 3 25 -9 44 4 38 26 -3 12
-9 18 -14 16 -4 -3 -6 -12 -2 -20 3 -9 -1 -15 -10 -15 -10 0 -13 7 -10 19 3
10 -1 22 -8 27 -9 5 -10 2 -5 -11z"/>
<path d="M3660 3646 c0 -2 8 -10 18 -17 15 -13 16 -12 3 4 -13 16 -21 21 -21
13z"/>
<path d="M3691 3445 c-14 -13 -28 -22 -33 -19 -4 3 -8 0 -8 -5 0 -6 -5 -11
-11 -11 -6 0 -17 -7 -25 -15 -8 -8 -21 -12 -28 -9 -7 3 -16 -2 -19 -10 -5 -13
-2 -13 21 -5 48 18 142 80 137 90 -8 11 -5 12 -34 -16z"/>
<path d="M7069 7413 c-13 -16 -12 -17 4 -4 9 7 17 15 17 17 0 8 -8 3 -21 -13z"/>
<path d="M6912 7257 c-73 -73 -130 -136 -127 -140 3 -4 2 -5 -2 -2 -3 3 -17
-5 -30 -17 l-23 -21 0 -444 0 -443 38 0 c35 0 46 9 177 142 77 78 129 133 115
123 l-25 -20 19 22 c10 13 23 20 28 17 5 -4 86 70 179 162 l169 168 -1 51 -2
50 -6 -52 c-6 -46 -13 -59 -56 -103 -44 -45 -76 -66 -60 -40 3 6 1 10 -5 10
-7 0 -9 -8 -5 -20 4 -11 2 -20 -4 -20 -6 0 -11 5 -11 11 0 5 -4 8 -9 5 -5 -3
-11 1 -14 8 -3 8 -1 17 6 20 7 4 -1 4 -16 1 -24 -5 -27 -4 -15 9 7 7 16 12 20
10 3 -2 8 1 10 6 2 6 12 12 23 14 10 1 21 8 23 14 2 8 -3 10 -15 6 -11 -4 -6
5 15 25 19 19 31 41 31 54 l-2 22 -4 -22 c-2 -13 -68 -84 -148 -160 -79 -75
-141 -141 -138 -146 3 -6 1 -7 -4 -4 -13 8 -36 -17 -26 -27 4 -4 1 -4 -7 -1
-14 5 -115 -86 -122 -110 -2 -5 -13 -8 -25 -7 -12 2 -32 -2 -44 -8 -16 -9 -24
-9 -33 1 -8 9 -8 10 2 5 7 -4 19 -2 27 4 13 10 15 62 15 314 l0 301 93 96
c102 106 140 151 87 103 -32 -29 -70 -41 -70 -23 0 4 -11 6 -25 5 -14 0 -23
-5 -22 -11 2 -5 14 -9 27 -7 14 2 20 0 16 -7 -9 -14 -43 -14 -51 -1 -4 6 -11
8 -16 4 -5 -3 -7 -9 -5 -13 3 -4 -1 -8 -8 -8 -8 0 -12 6 -9 13 6 17 51 46 61
40 4 -3 14 -1 22 4 12 7 12 10 -3 16 -9 3 -14 10 -11 15 3 5 10 6 16 3 6 -4 8
-2 4 4 -3 6 2 17 11 24 23 18 109 108 102 108 -2 0 -64 -60 -137 -133z m14
-115 c-21 -20 -36 -31 -32 -24 4 6 3 12 -3 12 -6 0 -7 8 -4 17 6 15 7 15 12 0
5 -14 10 -12 31 13 13 16 26 27 29 24 3 -2 -12 -21 -33 -42z m-66 -66 c0 -2
-7 -7 -16 -10 -8 -3 -12 -2 -9 4 6 10 25 14 25 6z m-97 -41 c-10 -7 -20 -12
-21 -10 -7 7 23 33 31 28 5 -3 0 -11 -10 -18z m57 -10 c0 -8 -2 -15 -4 -15 -2
0 -6 7 -10 15 -3 8 -1 15 4 15 6 0 10 -7 10 -15z m-41 -21 c-28 -15 -39 -17
-39 -6 0 10 43 29 54 24 5 -3 -2 -11 -15 -18z m21 -31 c0 -29 -12 -24 -17 7
-2 11 2 20 7 20 6 0 10 -12 10 -27z m-25 7 c3 -5 1 -10 -4 -10 -6 0 -11 5 -11
10 0 6 2 10 4 10 3 0 8 -4 11 -10z m-23 -62 c-8 -8 -9 -4 -5 13 4 13 8 18 11
10 2 -7 -1 -18 -6 -23z m48 -3 c-7 -9 -10 -19 -6 -22 4 -4 11 -1 16 7 7 11 10
8 10 -12 0 -16 -5 -28 -11 -28 -5 0 -7 5 -4 10 10 16 -12 12 -29 -5 -20 -20
-25 -19 -23 5 1 13 6 19 15 15 7 -3 10 0 7 6 -4 6 1 17 11 24 25 19 29 19 14
0z m8 -69 c9 3 6 -2 -8 -11 -24 -16 -24 -16 -2 -12 18 4 22 1 22 -19 0 -29
-35 -52 -44 -28 -5 13 -2 15 14 11 25 -7 26 9 1 23 -14 7 -17 16 -13 32 3 12
7 17 9 11 3 -7 12 -10 21 -7z m-51 -78 c-3 -7 -5 -2 -5 12 0 14 2 19 5 13 2
-7 2 -19 0 -25z m22 -28 c-1 -3 3 -15 9 -27 9 -17 9 -22 -4 -27 -10 -4 -14 -1
-11 6 2 7 0 24 -5 36 -5 16 -5 23 3 20 6 -2 9 -6 8 -8z m39 -41 c1 -25 -2 -38
-8 -34 -6 4 -8 10 -5 15 3 5 1 18 -4 29 -8 14 -8 21 2 24 6 3 12 6 13 6 0 1 1
-17 2 -40z m-55 -10 c-3 -12 -9 -17 -15 -11 -10 10 0 44 12 37 5 -3 6 -14 3
-26z m477 14 c0 -2 -8 -3 -17 -1 -12 2 -17 -3 -15 -14 1 -9 -2 -19 -8 -23 -6
-4 -7 1 -4 12 5 16 4 16 -13 -2 -28 -30 -63 -59 -63 -52 0 14 95 94 107 90 7
-3 13 -7 13 -10z m-470 -74 c0 -10 -4 -19 -9 -19 -5 0 -8 11 -8 25 0 13 3 22
8 19 5 -3 9 -14 9 -25z m50 11 c0 -5 -4 -10 -10 -10 -5 0 -10 5 -10 10 0 6 5
10 10 10 6 0 10 -4 10 -10z m392 -2 c15 -12 14 -15 -4 -33 l-21 -20 12 22 c9
18 8 24 -6 32 -10 6 -13 11 -7 11 5 0 17 -6 26 -12z m-37 -27 c3 -5 2 -12 -3
-15 -5 -3 -9 1 -9 9 0 17 3 19 12 6z m-55 -32 c0 -11 4 -18 8 -15 4 2 14 1 21
-3 9 -6 10 -11 2 -15 -6 -4 -11 -2 -11 5 0 8 -5 7 -17 -2 -9 -8 -14 -9 -11 -4
4 6 3 17 -3 25 -6 10 -9 11 -9 3 0 -7 -5 -13 -12 -13 -6 0 -4 7 5 18 10 10 14
22 10 27 -5 4 -2 5 5 1 6 -4 12 -16 12 -27z m-359 -32 c-13 -13 -15 1 -4 30 7
17 8 17 11 -1 2 -10 -1 -23 -7 -29z m54 -27 c3 -5 1 -10 -4 -10 -6 0 -11 5
-11 10 0 6 2 10 4 10 3 0 8 -4 11 -10z m191 -22 c4 -7 4 -10 -1 -6 -4 4 -15 2
-24 -5 -14 -11 -14 -10 -2 6 16 20 18 21 27 5z m35 -15 c13 -16 12 -17 -3 -4
-10 7 -18 15 -18 17 0 8 8 3 21 -13z m-221 -55 c0 -5 -4 -8 -10 -8 -5 0 -10
10 -10 23 0 18 2 19 10 7 5 -8 10 -18 10 -22z m-30 5 c0 -7 -4 -13 -9 -13 -5
0 -13 -9 -16 -20 -4 -11 -11 -17 -17 -14 -7 4 -6 9 2 14 7 4 9 13 5 20 -6 9
-4 11 5 5 9 -6 12 -4 8 7 -4 9 0 15 8 15 8 0 14 -6 14 -14z m194 -50 c-17 -18
-29 -11 -21 11 4 9 13 13 21 10 14 -5 14 -8 0 -21z m-95 -6 c14 4 14 3 1 -7
-13 -10 -11 -11 8 -7 12 3 22 1 22 -4 0 -5 -4 -9 -10 -9 -5 0 -10 -5 -10 -11
0 -6 7 -9 15 -5 12 4 13 2 5 -13 -10 -19 -32 -22 -47 -7 -4 4 -3 6 2 4 6 -1
11 2 13 7 1 6 -7 12 -19 13 -17 3 -19 6 -9 12 12 7 11 11 0 27 -10 13 -10 15
-1 6 7 -6 21 -9 30 -6z m-64 -7 c3 -5 1 -10 -4 -10 -6 0 -11 5 -11 10 0 6 2
10 4 10 3 0 8 -4 11 -10z m25 -66 c0 -7 -5 -16 -11 -19 -6 -4 -9 0 -7 11 2 12
-3 19 -13 18 -9 -1 -16 4 -16 11 0 10 6 11 24 2 13 -5 23 -16 23 -23z m-14
-53 c1 -6 0 -7 -3 -1 -2 5 -9 8 -13 5 -5 -3 -11 -1 -14 4 -4 5 2 8 11 7 9 -2
18 -8 19 -15z m-36 -15 c0 -2 -7 -6 -15 -10 -8 -3 -15 -1 -15 4 0 6 7 10 15
10 8 0 15 -2 15 -4z"/>
<path d="M7804 7256 c-53 -27 -100 -91 -91 -125 3 -12 -3 -18 -22 -19 -14 -2
-53 -7 -86 -12 l-60 -9 51 2 c61 2 79 -10 50 -35 -15 -13 -16 -16 -4 -12 11 4
16 0 15 -13 -1 -11 -13 -21 -32 -25 -19 -4 -7 -6 33 -4 59 2 65 0 98 -30 37
-35 97 -51 159 -41 111 18 172 166 109 264 -52 79 -135 102 -220 59z m45 -32
c4 3 8 -2 8 -10 0 -8 -7 -14 -15 -12 -9 2 -15 6 -14 11 1 4 3 17 3 30 l2 22 4
-23 c2 -12 8 -20 12 -18z m29 11 c-3 -3 -9 2 -12 12 -6 14 -5 15 5 6 7 -7 10
-15 7 -18z m-98 -20 c-7 -8 -10 -21 -7 -29 4 -10 0 -12 -14 -9 -10 3 -19 10
-19 15 0 5 4 7 8 4 5 -3 15 6 22 19 7 14 15 23 18 20 3 -2 -1 -11 -8 -20z
m151 2 c-10 -9 -11 -8 -5 6 3 10 9 15 12 12 3 -3 0 -11 -7 -18z m-12 -59 c-6
-11 -8 -22 -5 -26 3 -3 6 -1 6 4 0 6 11 10 25 10 14 0 25 -4 25 -9 0 -5 -6 -7
-13 -4 -6 2 -18 -2 -25 -9 -11 -12 -10 -15 2 -20 9 -3 16 -14 16 -23 1 -11 5
-9 14 8 9 17 15 20 18 10 2 -7 -4 -22 -13 -33 -10 -10 -16 -23 -13 -28 3 -5
-3 -12 -14 -15 -12 -3 -18 -11 -16 -18 3 -7 1 -16 -5 -20 -7 -4 -8 1 -4 12 3
10 3 15 -2 11 -4 -4 -15 -2 -23 5 -13 10 -15 9 -9 -5 9 -24 -4 -23 -37 3 -30
23 -36 22 -39 -10 -1 -11 -5 -21 -10 -21 -4 0 -7 8 -5 18 2 11 -3 26 -11 35
-9 12 -10 17 -2 17 7 0 9 5 5 11 -3 6 0 15 7 20 11 7 11 9 -2 9 -9 0 -19 -9
-22 -20 -3 -11 -10 -20 -16 -20 -8 0 -9 6 -3 18 11 20 6 40 -15 64 -13 15 -13
16 4 14 10 -2 18 -8 18 -14 0 -6 6 -17 13 -23 16 -17 17 3 1 33 -9 16 -8 19 2
12 18 -11 49 -13 49 -2 0 4 -6 8 -12 8 -7 0 -5 5 5 11 10 6 25 8 33 5 9 -4 19
4 26 19 l11 25 23 -21 c19 -17 21 -26 13 -41z m61 52 c13 -8 13 -10 -2 -10 -9
0 -20 5 -23 10 -8 13 5 13 25 0z m-280 -140 c-13 -8 -13 -10 -1 -10 8 0 12 -3
8 -6 -3 -3 -11 -3 -17 1 -8 5 -8 11 1 21 6 8 14 12 18 9 3 -3 -1 -10 -9 -15z
m47 14 c-3 -3 -12 -4 -19 -1 -8 3 -5 6 6 6 11 1 17 -2 13 -5z m274 -37 c-6 -8
-8 -16 -5 -19 3 -3 1 -9 -4 -12 -5 -3 -12 3 -15 14 -3 11 -1 18 3 15 5 -3 11
-1 15 5 3 5 9 10 12 10 3 0 0 -6 -6 -13z m-305 -20 c4 -7 4 -9 -1 -5 -4 4 -14
3 -20 -2 -9 -7 -14 -7 -18 3 -6 16 30 20 39 4z m35 -2 c5 4 6 -2 2 -12 -6 -16
-5 -17 13 -3 17 14 18 14 6 -2 -10 -13 -10 -17 0 -21 7 -3 9 -6 3 -6 -18 -1
-32 13 -39 39 -3 14 -3 19 0 12 3 -6 10 -10 15 -7z m111 -57 c-7 -7 -12 -8
-12 -2 0 14 12 26 19 19 2 -3 -1 -11 -7 -17z"/>
<path d="M7884 7191 c4 -5 2 -11 -4 -13 -6 -2 -6 -8 0 -18 8 -13 10 -12 10 4
0 13 5 16 16 12 14 -5 15 -4 4 9 -13 16 -35 21 -26 6z"/>
<path d="M7833 7164 c3 -4 2 -15 -4 -25 -9 -17 -7 -18 16 -7 19 9 22 14 14 25
-6 7 -16 13 -22 13 -6 0 -7 -3 -4 -6z"/>
<path d="M7805 7050 c-3 -5 -1 -10 4 -10 6 0 11 5 11 10 0 6 -2 10 -4 10 -3 0
-8 -4 -11 -10z"/>
<path d="M7464 7076 c-18 -8 -35 -20 -40 -28 -7 -11 -5 -11 9 0 9 8 36 20 59
27 24 8 34 14 23 14 -11 0 -34 -6 -51 -13z"/>
<path d="M7384 7018 l-19 -23 23 19 c21 18 27 26 19 26 -2 0 -12 -10 -23 -22z"/>
<path d="M7538 6993 c7 -3 16 -2 19 1 4 3 -2 6 -13 5 -11 0 -14 -3 -6 -6z"/>
<path d="M7344 6954 c-8 -20 -14 -42 -12 -49 2 -8 10 8 19 36 18 57 15 65 -7
13z"/>
<path d="M7484 6974 c-18 -14 -18 -15 4 -4 12 6 22 13 22 15 0 8 -5 6 -26 -11z"/>
<path d="M5526 7571 c-3 -4 6 -6 19 -3 14 2 43 -3 65 -12 22 -9 40 -13 40 -10
0 9 -68 34 -94 34 -14 0 -27 -4 -30 -9z"/>
<path d="M5454 7544 c-18 -14 -18 -15 4 -4 12 6 22 13 22 15 0 8 -5 6 -26 -11z"/>
<path d="M5660 7536 c0 -2 8 -10 18 -17 15 -13 16 -12 3 4 -13 16 -21 21 -21
13z"/>
<path d="M5382 7400 c0 -19 2 -27 5 -17 2 9 2 25 0 35 -3 9 -5 1 -5 -18z"/>
<path d="M5711 7374 c0 -11 3 -14 6 -6 3 7 2 16 -1 19 -3 4 -6 -2 -5 -13z"/>
<path d="M5390 7341 c0 -5 9 -19 20 -32 l20 -24 -16 33 c-15 32 -24 40 -24 23z"/>
<path d="M5908 7110 c111 -113 202 -209 202 -214 0 -5 -8 -2 -17 5 -16 13 -17
12 -4 -3 7 -10 18 -15 23 -12 5 3 23 -6 39 -22 21 -20 26 -31 18 -40 -7 -8 -7
-14 1 -19 6 -4 9 -3 8 2 -2 4 2 10 7 13 6 3 11 -54 13 -160 3 -219 10 -228 11
-15 l1 170 -252 250 c-201 199 -212 208 -50 45z"/>
<path d="M5485 7245 c32 -15 88 -18 119 -6 12 4 -4 7 -40 7 -32 -1 -70 2 -84
6 -19 6 -18 4 5 -7z"/>
<path d="M5690 7198 c24 -27 45 -48 47 -48 8 0 0 9 -44 50 l-48 45 45 -47z"/>
<path d="M5930 6957 c91 -92 166 -167 167 -167 11 0 -34 48 -171 180 l-161
155 165 -168z"/>
<path d="M6100 6615 c0 -93 2 -166 5 -163 7 6 8 319 1 326 -3 3 -6 -70 -6
-163z"/>
<path d="M6204 6290 c0 -85 2 -120 3 -77 2 42 2 112 0 155 -1 42 -3 7 -3 -78z"/>
<path d="M6100 6130 c0 -11 2 -20 4 -20 2 0 6 9 9 20 3 11 1 20 -4 20 -5 0 -9
-9 -9 -20z"/>
<path d="M6202 6105 c0 -16 2 -22 5 -12 2 9 2 23 0 30 -3 6 -5 -1 -5 -18z"/>
<path d="M6203 5995 c0 -44 2 -61 4 -37 2 23 2 59 0 80 -2 20 -4 1 -4 -43z"/>
<path d="M6202 5785 c0 -16 2 -22 5 -12 2 9 2 23 0 30 -3 6 -5 -1 -5 -18z"/>
<path d="M6201 5614 c0 -11 3 -14 6 -6 3 7 2 16 -1 19 -3 4 -6 -2 -5 -13z"/>
<path d="M5481 4644 c0 -11 3 -14 6 -6 3 7 2 16 -1 19 -3 4 -6 -2 -5 -13z"/>
<path d="M5481 4390 c-2 -80 -5 -155 -6 -168 -3 -28 -14 -41 -13 -16 0 11 -3
28 -7 38 -5 12 -5 17 1 13 6 -3 10 4 11 16 0 12 -1 16 -4 10 -3 -7 -18 -13
-34 -13 -27 0 -29 2 -29 42 0 23 -2 39 -5 36 -3 -3 -9 -328 -12 -721 l-6 -716
138 -158 c76 -87 196 -224 268 -305 l130 -148 69 0 68 0 -94 108 c-52 59 -178
204 -280 322 l-186 215 -3 795 c-1 437 -4 730 -6 650z m-31 -160 c0 -5 -4 -10
-9 -10 -6 0 -8 -9 -6 -20 2 -11 0 -20 -4 -20 -4 0 -8 14 -9 30 0 20 4 30 14
30 8 0 14 -4 14 -10z"/>
<path d="M5320 6209 c0 -5 10 -9 22 -9 12 0 18 3 14 7 -10 11 -36 12 -36 2z"/>
<path d="M5451 5553 c-10 -26 -10 -27 4 -9 8 11 15 23 15 28 0 15 -7 8 -19
-19z"/>
<path d="M5441 5367 c-13 -21 -12 -21 5 -5 10 10 16 20 13 22 -3 3 -11 -5 -18
-17z"/>
</g>
</svg>
